<?xml version="1.0" encoding="UTF-8"?>
<svg width="22px" height="22px" viewBox="0 0 22 22" version="1.1" xmlns="http://www.w3.org/2000/svg" xmlns:xlink="http://www.w3.org/1999/xlink">
    <title>EE1467FE-6FF4-403A-81D2-DC6F13C6BE04</title>
    <g id="homepage-options---v2" stroke="none" stroke-width="1" fill="none" fill-rule="evenodd">
        <g id="1-Homepage---Footer-Option-2" transform="translate(-1250.000000, -10.000000)">
            <g id="footer-icon-facebook-copy" transform="translate(1250.000000, 10.000000)">
                <rect id="Rectangle" x="0" y="0" width="22" height="22"></rect>
                <path d="M12.5583333,19.0666667 L12.5583333,11.8507813 L14.7888889,11.8507813 L15.1555556,8.98333333 L12.5583333,8.98333333 L12.5583333,6.99817708 C12.5583333,6.53602431 12.6398148,6.19991319 12.8027778,5.98984375 C13.0064815,5.73776042 13.3833333,5.61171875 13.9333333,5.61171875 L13.9333333,5.61171875 L15.4,5.61171875 L15.4,3.059375 C14.85,2.97534722 14.137037,2.93333333 13.2611111,2.93333333 C12.1814815,2.93333333 11.3157407,3.26419271 10.6638889,3.92591146 C10.012037,4.58763021 9.68611111,5.5171875 9.68611111,6.71458333 L9.68611111,6.71458333 L9.68611111,8.98333333 L7.33333333,8.98333333 L7.33333333,11.8507813 L9.68611111,11.8507813 L9.68611111,19.0666667 L12.5583333,19.0666667 Z" id="" fill="#FDB414" fill-rule="nonzero"></path>
            </g>
        </g>
    </g>
</svg>