<?xml version="1.0" encoding="UTF-8"?>
<svg width="22px" height="22px" viewBox="0 0 22 22" version="1.1" xmlns="http://www.w3.org/2000/svg" xmlns:xlink="http://www.w3.org/1999/xlink">
    <title>6715D3E5-36F0-4174-B3C5-8F4462094F34</title>
    <g id="homepage-options---v2" stroke="none" stroke-width="1" fill="none" fill-rule="evenodd">
        <g id="1-Homepage---Footer-Option-2" transform="translate(-1336.000000, -10.000000)">
            <g id="footer-icon-instagram-copy" transform="translate(1336.000000, 10.000000)">
                <rect id="Rectangle" x="0" y="0" width="22" height="22"></rect>
                <path d="M14.274628,17.5558036 C14.8655506,17.5263393 15.3787202,17.4428571 15.8141369,17.3053571 C16.3324901,17.1285714 16.7834573,16.8584821 17.1670387,16.4950893 C17.55062,16.1316964 17.8357143,15.7044643 18.0223214,15.2133929 C18.1674603,14.8008929 18.2555804,14.3147321 18.2866815,13.7549107 C18.3153903,13.2381525 18.3308489,12.415942 18.3330573,11.2882793 L18.3333333,11 C18.3333333,9.72321429 18.3229663,8.80982143 18.3022321,8.25982143 C18.2607639,7.69017857 18.1674603,7.19910714 18.0223214,6.78660714 C17.8357143,6.29553571 17.55062,5.86830357 17.1670387,5.50491071 C16.7834573,5.14151786 16.3324901,4.87142857 15.8141369,4.69464286 C15.3787202,4.55714286 14.8655506,4.47366071 14.274628,4.44419643 C13.7291609,4.41699863 12.8612721,4.40235366 11.6709615,4.40026152 L11.3666667,4.4 C10.0189484,4.4 9.04962798,4.41473214 8.45870536,4.44419643 C7.86778274,4.47366071 7.3546131,4.55714286 6.91919643,4.69464286 C6.40084325,4.87142857 5.94987599,5.14151786 5.56629464,5.50491071 C5.18271329,5.86830357 4.89761905,6.29553571 4.7110119,6.78660714 C4.56587302,7.19910714 4.47775298,7.68526786 4.44665179,8.24508929 C4.41794299,8.76184753 4.40248441,9.58405801 4.40027605,10.7117207 L4.4,11 C4.4,12.2767857 4.4155506,13.1950893 4.44665179,13.7549107 C4.47775298,14.3147321 4.56587302,14.8008929 4.7110119,15.2133929 C4.89761905,15.7044643 5.18271329,16.1316964 5.56629464,16.4950893 C5.94987599,16.8584821 6.40084325,17.11875 6.91919643,17.2758929 C7.3546131,17.4330357 7.86778274,17.5263393 8.45870536,17.5558036 C9.00417239,17.5830014 9.87206123,17.5976463 11.0623719,17.5997385 L11.3666667,17.6 C12.7143849,17.6 13.6837054,17.5852679 14.274628,17.5558036 Z M12.1399728,16.4210648 L10.8690476,16.4214286 C10.0396825,16.4214286 9.3969246,16.4116071 8.94077381,16.3919643 C8.17361111,16.3526786 7.61378968,16.2741071 7.26130952,16.15625 C6.63928571,15.9205357 6.19350198,15.4982143 5.92395833,14.8892857 C5.79955357,14.5553571 5.71661706,14.025 5.67514881,13.2982143 C5.65441468,12.8660714 5.64404762,12.2571429 5.64404762,11.4714286 L5.64404762,10.5285714 C5.64404762,9.74285714 5.65441468,9.13392857 5.67514881,8.70178571 C5.71661706,7.95535714 5.79955357,7.425 5.92395833,7.11071429 C6.17276786,6.50178571 6.61855159,6.07946429 7.26130952,5.84375 C7.61378968,5.72589286 8.17361111,5.64732143 8.94077381,5.60803571 C9.34624118,5.5905754 9.89915123,5.58087522 10.599504,5.57893519 L11.8642857,5.57857143 C12.6936508,5.57857143 13.3364087,5.58839286 13.7925595,5.60803571 C14.5804563,5.64732143 15.1402778,5.72589286 15.4720238,5.84375 C16.1147817,6.07946429 16.5605655,6.50178571 16.809375,7.11071429 C16.9337798,7.425 17.0167163,7.95535714 17.0581845,8.70178571 C17.0766149,9.06845238 17.0868539,9.59032187 17.0889017,10.2673942 L17.0892857,11.4714286 C17.0892857,12.2571429 17.0789187,12.8660714 17.0581845,13.2982143 C17.0167163,14.025 16.9337798,14.5553571 16.809375,14.8892857 C16.5605655,15.4785714 16.1147817,15.9008929 15.4720238,16.15625 C15.1402778,16.2741071 14.5804563,16.3526786 13.7925595,16.3919643 C13.4055225,16.4094246 12.8546602,16.4191248 12.1399728,16.4210648 Z M15.0988095,8.25982143 C15.3268849,8.25982143 15.5186756,8.18125 15.6741815,8.02410714 C15.8296875,7.86696429 15.9178075,7.68035714 15.9385417,7.46428571 C15.9385417,7.24821429 15.8556052,7.06160714 15.6897321,6.90446429 C15.5238591,6.74732143 15.3268849,6.66875 15.0988095,6.66875 C14.8707341,6.66875 14.6737599,6.74732143 14.5078869,6.90446429 C14.3420139,7.06160714 14.2590774,7.24821429 14.2590774,7.46428571 C14.2590774,7.68035714 14.3420139,7.86696429 14.5078869,8.02410714 C14.6737599,8.18125 14.8707341,8.25982143 15.0988095,8.25982143 Z M11.3666667,14.3883929 C12.0094246,14.3883929 12.6055308,14.2361607 13.1549851,13.9316964 C13.7044395,13.6272321 14.1398562,13.2147321 14.4612351,12.6941964 C14.7826141,12.1736607 14.9433036,11.6089286 14.9433036,11 C14.9433036,10.3910714 14.7826141,9.82633929 14.4612351,9.30580357 C14.1398562,8.78526786 13.7044395,8.37276786 13.1549851,8.06830357 C12.6055308,7.76383929 12.0094246,7.61160714 11.3666667,7.61160714 C10.7239087,7.61160714 10.1278026,7.76383929 9.57834821,8.06830357 C9.02889385,8.37276786 8.59347718,8.78526786 8.27209821,9.30580357 C7.95071925,9.82633929 7.79002976,10.3910714 7.79002976,11 C7.79002976,11.6089286 7.95071925,12.1736607 8.27209821,12.6941964 C8.59347718,13.2147321 9.02889385,13.6272321 9.57834821,13.9316964 C10.1278026,14.2361607 10.7239087,14.3883929 11.3666667,14.3883929 Z M11.3666667,13.2098214 C10.7239087,13.2098214 10.1744544,12.99375 9.71830357,12.5616071 C9.26215278,12.1294643 9.03407738,11.6089286 9.03407738,11 C9.03407738,10.3910714 9.26215278,9.87053571 9.71830357,9.43839286 C10.1744544,9.00625 10.7239087,8.79017857 11.3666667,8.79017857 C12.0094246,8.79017857 12.558879,9.00625 13.0150298,9.43839286 C13.4711806,9.87053571 13.699256,10.3910714 13.699256,11 C13.699256,11.6089286 13.4711806,12.1294643 13.0150298,12.5616071 C12.558879,12.99375 12.0094246,13.2098214 11.3666667,13.2098214 Z" id="" fill="#FDB414" fill-rule="nonzero"></path>
            </g>
        </g>
    </g>
</svg>