<?xml version="1.0" encoding="UTF-8"?>
<svg width="26px" height="26px" viewBox="0 0 26 26" version="1.1" xmlns="http://www.w3.org/2000/svg" xmlns:xlink="http://www.w3.org/1999/xlink">
    <title>D21D7481-8E2C-45B4-A2AE-5178D353A929</title>
    <g id="homepage-options---v2" stroke="none" stroke-width="1" fill="none" fill-rule="evenodd">
        <g id="1-Homepage---Footer-Option-2" transform="translate(-1375.000000, -84.000000)">
            <g id="Nav-Option-2" transform="translate(615.000000, 84.000000)">
                <g id="search_black_24dp-(6)" transform="translate(760.000000, 0.000000)">
                    <polygon id="Path" points="0 0 26 0 26 26 0 26"></polygon>
                    <path d="M17.1130872,15.470043 L16.2477506,15.470043 L15.941049,15.1742951 C17.0145045,13.9255815 17.6607686,12.3044446 17.6607686,10.5409106 C17.6607686,6.60855827 14.4732629,3.42105263 10.5409106,3.42105263 C6.60855827,3.42105263 3.42105263,6.60855827 3.42105263,10.5409106 C3.42105263,14.4732629 6.60855827,17.6607686 10.5409106,17.6607686 C12.3044446,17.6607686 13.9255815,17.0145045 15.1742951,15.941049 L15.470043,16.2477506 L15.470043,17.1130872 L20.9468569,22.5789474 L22.5789474,20.9468569 L17.1130872,15.470043 Z M10.5409106,15.470043 C7.81345731,15.470043 5.61177816,13.2683639 5.61177816,10.5409106 C5.61177816,7.81345731 7.81345731,5.61177816 10.5409106,5.61177816 C13.2683639,5.61177816 15.470043,7.81345731 15.470043,10.5409106 C15.470043,13.2683639 13.2683639,15.470043 10.5409106,15.470043 Z" id="Shape" fill="#303B42" fill-rule="nonzero"></path>
                </g>
            </g>
        </g>
    </g>
</svg>