<?xml version="1.0" encoding="UTF-8"?>
<svg width="22px" height="22px" viewBox="0 0 22 22" version="1.1" xmlns="http://www.w3.org/2000/svg" xmlns:xlink="http://www.w3.org/1999/xlink">
    <title>CF91E577-C0C0-416F-921B-FCE6EDEFA145</title>
    <g id="homepage-options---v2" stroke="none" stroke-width="1" fill="none" fill-rule="evenodd">
        <g id="1-Homepage---Footer-Option-2" transform="translate(-1293.000000, -10.000000)">
            <g id="footer-icon-twitter-copy" transform="translate(1293.000000, 10.000000)">
                <rect id="Rectangle" x="0" y="0" width="22" height="22"></rect>
                <path d="M8.00651042,17.6 C9.93914931,17.6 11.6512153,17.1028846 13.1427083,16.1086538 C14.5081597,15.2201923 15.5690104,14.025 16.3252604,12.5230769 C17.0605035,11.1057692 17.428125,9.63557692 17.428125,8.1125 C17.428125,7.92211538 17.4176215,7.78461538 17.3966146,7.7 C18.0478299,7.21346154 18.6045139,6.63173077 19.0666667,5.95480769 C18.4364583,6.22980769 17.80625,6.40961538 17.1760417,6.49423077 C17.8902778,6.05 18.3734375,5.43653846 18.6255208,4.65384615 C17.9743056,5.03461538 17.2705729,5.29903846 16.5143229,5.44711538 C16.1992187,5.12980769 15.836849,4.87596154 15.4272135,4.68557692 C15.0175781,4.49519231 14.5711806,4.4 14.0880208,4.4 C13.4998264,4.4 12.9536458,4.54807692 12.4494792,4.84423077 C11.9453125,5.14038462 11.5461806,5.54759615 11.2520833,6.06586538 C10.9579861,6.58413462 10.8109375,7.13942308 10.8109375,7.73173077 C10.8109375,7.98557692 10.8319444,8.23942308 10.8739583,8.49326923 C9.52951389,8.42980769 8.26384549,8.09134615 7.07695312,7.47788462 C5.89006076,6.86442308 4.88697917,6.03942308 4.06770833,5.00288462 C3.75260417,5.53173077 3.59505208,6.08701923 3.59505208,6.66875 C3.59505208,7.25048077 3.73159722,7.78461538 4.0046875,8.27115385 C4.27777778,8.75769231 4.63489583,9.15961538 5.07604167,9.47692308 C4.55086806,9.45576923 4.05720486,9.30769231 3.59505208,9.03269231 L3.59505208,9.03269231 L3.59505208,9.09615385 C3.59505208,9.87884615 3.84713542,10.5769231 4.35130208,11.1903846 C4.85546875,11.8038462 5.48567708,12.1951923 6.24192708,12.3644231 C5.94782986,12.4278846 5.65373264,12.4596154 5.35963542,12.4596154 C5.17057292,12.4596154 4.97100694,12.4490385 4.7609375,12.4278846 C4.97100694,13.0836538 5.35438368,13.6283654 5.91106771,14.0620192 C6.46775174,14.4956731 7.11371528,14.7125 7.84895833,14.7125 C6.63055556,15.6644231 5.25460069,16.1403846 3.72109375,16.1403846 C3.42699653,16.1403846 3.16440972,16.1298077 2.93333333,16.1086538 C4.46684028,17.1028846 6.15789931,17.6 8.00651042,17.6 Z" id="" fill="#FDB414" fill-rule="nonzero"></path>
            </g>
        </g>
    </g>
</svg>