<?xml version="1.0" encoding="UTF-8"?>
<svg width="22px" height="22px" viewBox="0 0 22 22" version="1.1" xmlns="http://www.w3.org/2000/svg" xmlns:xlink="http://www.w3.org/1999/xlink">
    <title>CE465B66-8B2A-451A-9142-734C73CBEE6E</title>
    <g id="homepage-options---v2" stroke="none" stroke-width="1" fill="none" fill-rule="evenodd">
        <g id="1-Homepage---Footer-Option-2" transform="translate(-1379.000000, -10.000000)">
            <g id="footer-icon-youtube-copy" transform="translate(1379.000000, 10.000000)">
                <rect id="Rectangle" x="0" y="0" width="22" height="22"></rect>
                <path d="M11.3666667,16.8666667 L14.1777778,16.8361111 C16.154823,16.775 17.4110704,16.6731481 17.9465201,16.5305556 C18.3172161,16.4287037 18.6364265,16.2453704 18.9041514,15.9805556 C19.1718763,15.7157407 19.3572243,15.4101852 19.4601954,15.0638889 C19.6043549,14.5138889 19.707326,13.6685185 19.7691087,12.5277778 L19.8,11 L19.7691087,9.47222222 C19.707326,8.35185185 19.6043549,7.51666667 19.4601954,6.96666667 C19.3572243,6.6 19.1718763,6.28425926 18.9041514,6.01944444 C18.6364265,5.75462963 18.3172161,5.5712963 17.9465201,5.46944444 C17.4110704,5.32685185 16.154823,5.225 14.1777778,5.16388889 L11.3666667,5.13333333 L8.55555556,5.16388889 C6.57851038,5.225 5.32226292,5.32685185 4.78681319,5.46944444 C4.41611722,5.5712963 4.0969068,5.75462963 3.82918193,6.01944444 C3.56145706,6.28425926 3.37610908,6.6 3.27313797,6.96666667 C3.12897843,7.51666667 3.02600733,8.35185185 2.96422466,9.47222222 C2.94363044,10.0425926 2.93333333,10.5518519 2.93333333,11 L2.96422466,12.5277778 C3.02600733,13.6685185 3.12897843,14.5138889 3.27313797,15.0638889 C3.37610908,15.4101852 3.56145706,15.7157407 3.82918193,15.9805556 C4.0969068,16.2453704 4.41611722,16.4287037 4.78681319,16.5305556 C5.32226292,16.6731481 6.57851038,16.775 8.55555556,16.8361111 L11.3666667,16.8666667 Z M9.63675214,13.5055556 L9.63675214,8.525 L14.0542125,11 L9.63675214,13.5055556 Z" id="" fill="#FDB414" fill-rule="nonzero"></path>
            </g>
        </g>
    </g>
</svg>