<?xml version="1.0" encoding="UTF-8"?>
<svg width="64px" height="75px" viewBox="0 0 64 75" version="1.1" xmlns="http://www.w3.org/2000/svg" xmlns:xlink="http://www.w3.org/1999/xlink">
    <title>DDDF1E32-ED6D-4C47-939E-D79EDF695A35</title>
    <g id="homepage-options---v2" stroke="none" stroke-width="1" fill="none" fill-rule="evenodd">
        <g id="6-Meade---Parts-Listing" transform="translate(-159.000000, -1588.000000)" fill="#FDB414" fill-rule="nonzero">
            <g id="confused" transform="translate(159.000000, 1588.000000)">
                <path d="M63.1885248,40.1125489 C62.3291577,39.0427116 60.9494184,38.5290672 59.5891597,38.7719736 C56.6716212,39.2930494 54.226491,41.2078863 53.0484956,43.8939911 C52.8716929,44.2982037 50.3247315,50.1065374 50.0670543,50.6944963 L47.1140962,47.859471 C47.1067171,47.852331 47.099338,47.8453367 47.091959,47.8386338 C45.0672885,45.9739228 42.2759321,44.7860565 38.9255371,44.3382753 C40.8154657,42.5417587 41.9949369,40.0216229 41.9949369,37.2330807 L41.9949369,33.8685282 C41.9949369,28.4269584 37.5112636,24 31.9999804,24 C26.4888447,24 22.0051714,28.4269584 22.0051714,33.8685282 L22.0051714,37.2330807 C22.0051714,40.0216229 23.1846427,42.5419044 25.0745712,44.3382753 C21.7241762,44.7860565 18.9326723,45.9739228 16.9080018,47.8386338 C16.8837984,47.8606367 13.957405,50.6713276 13.9329065,50.694642 C13.662242,50.0772488 11.1388936,44.3225381 10.9514652,43.8941368 C9.77346968,41.2077406 7.32819193,39.2930494 4.4106534,38.7721193 C3.04921414,38.5292129 1.67065541,39.0428573 0.811435964,40.1126946 C-0.0477834851,41.1823862 -0.240377333,42.6252532 0.309068564,43.8782539 L2.39837975,48.6423961 C2.3988225,48.6435618 2.39956041,48.6445818 2.40000315,48.6457476 L6.59869661,58.2200778 C6.60651843,58.237855 6.61463541,58.2556322 6.62334272,58.2731179 C8.15907573,61.4224498 9.98657736,63.1528119 12.2101877,63.5634359 C14.1498513,63.9218941 16.2592335,63.2529179 18.7204501,61.4734499 L18.7204501,73.542853 C18.7204501,74.3476353 19.38132,75 20.196265,75 L25.3588132,75 C26.1737582,75 26.8346281,74.3476353 26.8346281,73.542853 C26.8346281,72.7382164 26.1737582,72.085706 25.3588132,72.085706 L21.6720799,72.085706 L21.6720799,58.9826028 L23.1628006,57.602976 C23.757554,57.0526116 23.7878082,56.1305289 23.2305405,55.5432987 C22.6729776,54.9559227 21.7389344,54.9261969 21.1444761,55.4764156 C18.5767057,57.9271912 15.0586581,61.199652 12.7526973,60.6988306 C11.5391347,60.4747214 10.3760449,59.2422664 9.29530564,57.0346887 L5.69357932,48.8213338 L9.23199318,47.308378 L12.0741176,53.7900594 C12.266859,54.2296807 12.6660669,54.5474844 13.1418697,54.6405961 C13.61782,54.7335621 14.1095615,54.5897417 14.4572635,54.2557636 L18.9320819,49.959657 C21.0202125,48.0429258 23.9029218,47.3397067 26.3446576,47.1278375 L26.3446576,47.7890908 C26.3446576,50.6229504 28.8815834,52.9284484 31.9999804,52.9284484 C35.1183773,52.9284484 37.6553032,50.6229504 37.6553032,47.7890908 L37.6553032,47.1278375 C40.097039,47.3397067 42.9796007,48.0429258 45.0678788,49.959657 L49.5426972,54.2557636 C49.8903992,54.5897417 50.3821407,54.7332707 50.8580911,54.6405961 C51.3340414,54.5474844 51.7332493,54.2296807 51.9258432,53.7900594 L54.7679675,47.308378 L58.3063814,48.8213338 L54.7046551,57.0346887 C53.6239158,59.2421207 52.4608261,60.4745756 51.2472635,60.6988306 C49.4939953,61.4300269 45.0236043,57.700022 42.8554846,55.4764156 C42.2610264,54.9263426 41.3268355,54.9560684 40.7694202,55.5432987 C40.2121525,56.1303832 40.2424067,57.0526116 40.8371601,57.602976 L42.3278808,58.9826028 L42.3278808,72.085706 L38.6414427,72.085706 C37.8263501,72.085706 37.1656278,72.7382164 37.1656278,73.542853 C37.1656278,74.3476353 37.8263501,75 38.6414427,75 L43.8036957,75 C44.6186407,75 45.2795106,74.3476353 45.2795106,73.542853 L45.2795106,61.4734499 C47.7408748,63.2529179 49.8499619,63.9210198 51.789773,63.5634359 C54.0133834,63.1529576 55.840885,61.4225955 57.376618,58.2731179 C58.7815938,55.0780317 62.3337328,46.9695913 63.6908922,43.8779625 C64.2403381,42.6251075 64.0478918,41.1822405 63.1885248,40.1125489 L63.1885248,40.1125489 Z M3.12403795,41.9234912 C3.20122307,41.8273195 3.40267181,41.6259418 3.73236886,41.6259418 C3.78062801,41.6259418 3.83169121,41.6301675 3.88555845,41.6399304 C5.67675503,41.9596285 7.20068152,43.0683716 8.0429291,44.6409247 L4.52060162,46.1470318 L3.0176317,42.7199678 C2.84761782,42.3323667 3.03534148,42.033943 3.12403795,41.9234912 Z M24.9568012,33.8685282 C24.9568012,30.0340458 28.1163734,26.914294 31.9999804,26.914294 C35.8835873,26.914294 39.0433071,30.0339001 39.0433071,33.8685282 L39.0433071,37.2330807 C39.0433071,41.0674173 35.8837349,44.1871691 31.9999804,44.1871691 C28.116521,44.1871691 24.9568012,41.0675631 24.9568012,37.2330807 L24.9568012,33.8685282 Z M31.9999804,50.0144458 C30.5091121,50.0144458 29.2962874,49.0161543 29.2962874,47.7893823 L29.2962874,46.7314935 C30.1569827,46.9706113 31.0629855,47.1014631 31.9999804,47.1014631 C32.9369753,47.1014631 33.8431256,46.9707571 34.7036733,46.7314935 L34.7036733,47.7893823 C34.7036733,49.0163 33.490701,50.0144458 31.9999804,50.0144458 Z M60.1145499,41.6399304 C60.5342716,41.5638673 60.7873739,41.8131852 60.8759228,41.9234912 C60.9646193,42.0337972 61.1523429,42.3323667 60.982329,42.7201135 L59.4793591,46.1471776 L55.9570316,44.6409247 C56.7992792,43.0682259 58.3233533,41.9596285 60.1145499,41.6399304 L60.1145499,41.6399304 Z" id="Shape"></path>
                <circle id="Oval" cx="31.5" cy="73.5" r="1.5"></circle>
                <path d="M27.6015405,4.29626086 C28.2529977,4.80090881 29.1646588,4.64643426 29.6375448,3.95106548 C30.0489148,3.34623465 30.7136373,3.03697444 31.4162607,3.12517893 C32.2801085,3.23282887 32.9764636,3.9812448 33.0719446,4.90451409 C33.1594081,5.74953495 32.7642189,6.54928683 32.0653856,6.94224019 C30.6203429,7.75428159 29.7226759,9.33745119 29.7226759,11.0740064 L29.7226759,12.4443651 C29.7226759,13.3033867 30.3754451,14 31.1804008,14 C31.9855023,14 32.6381257,13.3033867 32.6381257,12.4443651 L32.6381257,11.0740064 C32.6381257,10.4957769 32.9391459,9.96748331 33.4239852,9.69509165 C35.1903104,8.70228548 36.1898724,6.68789389 35.9699017,4.5632078 C35.7268989,2.21388803 33.9541597,0.309479832 31.7548902,0.0352214059 C30.0171364,-0.182256348 28.3016857,0.618740043 27.2782171,2.12381677 C26.8051854,2.81887443 26.9499374,3.79176847 27.6015405,4.29626086 Z" id="Path"></path>
                <circle id="Oval" cx="31.5" cy="17.5" r="1.5"></circle>
                <path d="M5.71029568,16.7169303 C6.49711191,16.5918066 7.03362998,15.8521769 6.90855303,15.0650665 C6.79977792,14.3805662 7.06262705,13.7125182 7.6116961,13.2782653 C8.2865634,12.7441444 9.26452952,12.7473194 9.9370886,13.2864914 C10.5523749,13.7794817 10.8002205,14.5808796 10.568821,15.3278696 C10.0901528,16.8719279 10.5,18.5389451 11.6386833,19.6783357 L12.5373042,20.5772926 C12.8190519,20.8590013 13.1882236,21 13.5573954,21 C13.9265671,21 14.2957389,20.8590013 14.5774866,20.5772926 C15.1408378,20.0137308 15.1408378,19.0999092 14.5774866,18.5362031 L13.6788657,17.6373905 C13.2997398,17.2579785 13.1639873,16.7006224 13.3245532,16.1826651 C13.9096882,14.294697 13.2880544,12.2735234 11.7409665,11.0338317 C10.0301389,9.66309934 7.5410067,9.65429594 5.82210033,11.0142045 C4.46370987,12.0885077 3.78812124,13.8144067 4.0589049,15.5183693 C4.18412611,16.3054797 4.92434504,16.8429199 5.71029568,16.7169303 L5.71029568,16.7169303 Z" id="Path"></path>
                <path d="M18.5605805,24.5606765 C19.1464732,23.9749119 19.1464732,23.0250881 18.5605805,22.4393235 C17.9748378,21.8535588 17.0250497,21.8535588 16.439307,22.4393235 C15.8535643,23.0250881 15.8535643,23.9749119 16.439307,24.5606765 C17.0250497,25.1464412 17.9748378,25.1464412 18.5605805,24.5606765 Z" id="Path"></path>
                <path d="M48.4433629,20 C48.8128176,20 49.182128,19.8590594 49.4638372,19.5773224 L50.3627956,18.6787358 C50.742064,18.2996243 51.2994211,18.1637327 51.8173793,18.3244368 C53.7053506,18.909261 55.7265277,18.2879394 56.9662215,16.7407663 C58.3371005,15.0302925 58.345471,12.541111 56.9858487,10.8219816 C55.9113994,9.46378727 54.1853531,8.78764738 52.4816762,9.059142 C51.6945644,9.18421417 51.1578449,9.92353931 51.2829688,10.7103255 C51.4080927,11.4974002 52.1485896,12.0341864 52.9348355,11.9085372 C53.6197699,11.7991892 54.2873861,12.0626053 54.7216397,12.6115091 C55.2556172,13.2867835 55.2522979,14.2647123 54.7134136,14.9369572 C54.2204224,15.55222 53.4191675,15.7996234 52.6720319,15.5686654 C51.127538,15.0895827 49.4606622,15.5 48.3215583,16.6386312 L47.4225999,17.5372178 C46.8590372,18.1005475 46.8591815,19.0139927 47.4227442,19.5773224 C47.7047421,19.8592036 48.0739082,20 48.4433629,20 L48.4433629,20 Z" id="Path"></path>
                <path d="M45.5606765,24.5606765 C46.1464412,23.9749119 46.1464412,23.0250881 45.5606765,22.4393235 C44.9749119,21.8535588 44.0250881,21.8535588 43.4393235,22.4393235 C42.8535588,23.0250881 42.8535588,23.9749119 43.4393235,24.5606765 C44.0252381,25.1464412 44.9749119,25.1464412 45.5606765,24.5606765 Z" id="Path"></path>
            </g>
        </g>
    </g>
</svg>