<?xml version="1.0" encoding="UTF-8"?>
<svg width="55px" height="55px" viewBox="0 0 55 55" version="1.1" xmlns="http://www.w3.org/2000/svg" xmlns:xlink="http://www.w3.org/1999/xlink">
    <title>A4282D93-A961-433D-8040-EF85B49EEECA</title>
    <g id="homepage-options---v2" stroke="none" stroke-width="1" fill="none" fill-rule="evenodd">
        <g id="1-Homepage---Footer-Option-2" transform="translate(-691.000000, -3466.000000)" fill="#FDB414" fill-rule="nonzero">
            <g id="Footer-Option-2" transform="translate(-7.000000, 3408.000000)">
                <g id="email-(3)" transform="translate(698.000000, 58.000000)">
                    <path d="M55,21.8130175 L55,21.8081834 C55,21.7623133 54.9974219,21.7168728 54.9936621,21.6716472 C54.9925879,21.6592935 54.9909766,21.6470471 54.9896875,21.6346933 C54.9858203,21.5992433 54.9808789,21.5641156 54.9747559,21.5293102 C54.9725,21.5162044 54.9702441,21.5030987 54.967666,21.4901004 C54.9590723,21.4476678 54.9492969,21.4055575 54.937373,21.3641992 C54.9361914,21.3601171 54.9352246,21.3559276 54.934043,21.3518454 C54.9214746,21.3095203 54.9068652,21.2679472 54.8909668,21.2269111 C54.8849512,21.2112272 54.878291,21.1958655 54.8717383,21.180289 C54.8600293,21.1525736 54.8474609,21.1251804 54.8341406,21.098217 C54.8264063,21.082533 54.8189941,21.0667417 54.8108301,21.0512726 C54.7907422,21.0135667 54.7693652,20.9766128 54.746377,20.9405183 C54.7377832,20.9270902 54.7283301,20.9141993 54.7193066,20.9009862 C54.7013672,20.8746672 54.6827832,20.8488854 54.6633398,20.8237482 C54.6529199,20.8103201 54.6425,20.7969995 54.6316504,20.7837864 C54.6033984,20.7495181 54.5741797,20.7160017 54.5430273,20.6840967 C54.5405566,20.681626 54.5381934,20.6790478 54.5357227,20.676577 C54.5024219,20.6427384 54.4669727,20.6108334 54.4305566,20.5798953 C54.4260449,20.576028 54.4221777,20.571731 54.4175586,20.5679712 L51.6699219,18.2878929 L51.6699219,11.2807209 C51.6699219,9.20754157 49.983291,7.52087447 47.9101563,7.52087447 L38.6959375,7.52087447 L31.2730859,1.3606347 C29.0866211,-0.4535449 25.9131641,-0.4535449 23.7269141,1.3606347 L16.3040625,7.52076705 L7.08984375,7.52076705 C5.01670898,7.52076705 3.33007813,9.20743414 3.33007813,11.2806135 L3.33007813,18.2877855 L0.582333984,20.568186 C0.577822266,20.5719459 0.573847656,20.5762428 0.569335938,20.5801101 C0.532919922,20.6110483 0.497470703,20.6429533 0.464169922,20.6767919 C0.461699219,20.6792626 0.459335938,20.6818408 0.456865234,20.6843116 C0.425820313,20.7162166 0.396494141,20.7497329 0.368242188,20.7840012 C0.357392578,20.797107 0.346972656,20.810535 0.336552734,20.823963 C0.317109375,20.8492077 0.298525391,20.8749895 0.280585938,20.901201 C0.2715625,20.9144142 0.262109375,20.9273051 0.253515625,20.9407331 C0.230527344,20.9767202 0.209150391,21.0136741 0.1890625,21.0514874 C0.180791016,21.0669565 0.173378906,21.0827479 0.165751953,21.0984318 C0.152431641,21.1253953 0.139970703,21.1527884 0.128154297,21.1805039 C0.121601563,21.195973 0.114941406,21.211442 0.108925781,21.227126 C0.0930273438,21.268162 0.0783105469,21.3096277 0.0658496094,21.3520603 C0.0646679688,21.3561424 0.0637011719,21.3602245 0.0625195313,21.3644141 C0.0505957031,21.4057724 0.0408203125,21.4478827 0.0322265625,21.4903152 C0.0296484375,21.503421 0.0273925781,21.5164193 0.0251367188,21.529525 C0.0190136719,21.5643305 0.0140722656,21.5994582 0.0102050781,21.6349082 C0.00891601563,21.647262 0.0073046875,21.6595083 0.00623046875,21.6718621 C0.002578125,21.7168728 0,21.7623133 0,21.8081834 L0,21.8130175 L0,21.8138769 L0,49.0917774 C0,50.7802707 0.713066406,52.304405 1.85259766,53.3821918 C1.88493164,53.4145265 1.91737305,53.4465389 1.95196289,53.4756508 C3.00007812,54.4224876 4.38786133,55 5.90820313,55 L49.0917969,55 C50.6122461,55 52.0001367,54.4223802 53.0483594,53.4753286 C53.082627,53.446324 53.1148535,53.4146339 53.1469727,53.3825141 C54.2867188,52.3047272 55,50.7803781 55,49.0916699 L55,21.8138769 C55,21.813662 55,21.8133397 55,21.8130175 L55,21.8130175 Z M7.08984375,10.7434925 L47.9101562,10.7434925 C48.2063184,10.7434925 48.4472656,10.984445 48.4472656,11.2806135 L48.4472656,23.815082 L47.5354687,24.5717779 L29.2150977,39.7758448 C28.2213379,40.6005402 26.7786621,40.6004328 25.7849023,39.7758448 L7.46453125,24.5718853 L6.55273438,23.815082 L6.55273438,11.2806135 C6.55273438,10.984445 6.79368164,10.7434925 7.08984375,10.7434925 Z M3.22265625,49.0917774 L3.22265625,25.2393118 L3.91574219,25.8145683 C3.91617187,25.8148906 3.91660156,25.8153203 3.91703125,25.8156425 L19.6510059,38.8731594 L3.38765625,50.0186332 C3.28098633,49.7296622 3.22265625,49.4173801 3.22265625,49.0917774 Z M22.2295605,41.0130491 L23.7269141,42.2557321 C25.9131641,44.0701265 29.0868359,44.0700191 31.2730859,42.2557321 L32.7704395,41.0130491 L48.477666,51.7773819 L6.52222656,51.7773819 L22.2295605,41.0130491 Z M35.3489941,38.8732668 L51.0828613,25.8156425 C51.083291,25.8153203 51.0837207,25.8148906 51.0841504,25.8145683 L51.7772363,25.2393118 L51.7772363,49.0917774 C51.7772363,49.4173801 51.7189063,49.7296622 51.6122363,50.0186332 L35.3489941,38.8732668 Z M25.7849023,3.84073681 C26.7786621,3.01604136 28.2213379,3.01604136 29.2150977,3.84073681 L33.6495801,7.52087447 L21.3504199,7.52087447 L25.7849023,3.84073681 Z" id="Shape"></path>
                    <path d="M14,17 C14,18.1045333 14.7028372,19 15.5697674,19 L30.4302326,19 C31.2971628,19 32,18.1045333 32,17 C32,15.8954667 31.2971628,15 30.4302326,15 L15.5697674,15 C14.7028372,15 14,15.8954667 14,17 Z" id="Path"></path>
                    <path d="M15.626506,26 L39.373494,26 C40.1312289,26 40.7661084,25.3618667 40.946759,24.4994667 C40.9802651,24.3394667 41,24.1728 41,24 C41,22.8954667 40.271759,22 39.373494,22 L15.626506,22 C14.728241,22 14,22.8954667 14,24 C14,24.1728 14.0197349,24.3396 14.053241,24.4994667 C14.2338916,25.362 14.8687711,26 15.626506,26 Z" id="Path"></path>
                </g>
            </g>
        </g>
    </g>
</svg>