<?xml version="1.0" encoding="UTF-8"?>
<svg width="16px" height="16px" viewBox="0 0 16 16" version="1.1" xmlns="http://www.w3.org/2000/svg" xmlns:xlink="http://www.w3.org/1999/xlink">
    <title>831A1290-EC0E-4C87-8D30-F36F7DD649E3</title>
    <g id="homepage-options---v2" stroke="none" stroke-width="1" fill="none" fill-rule="evenodd">
        <g id="1-Homepage---Footer-Option-2" transform="translate(-995.000000, -13.000000)">
            <g id="Group-6" transform="translate(880.000000, 11.000000)">
                <g id="mail_black_24dp" transform="translate(115.000000, 2.000000)">
                    <polygon id="Path" points="0 0 16 0 16 16 0 16"></polygon>
                    <path d="M13.3333333,2.66666667 L2.66666667,2.66666667 C1.93333333,2.66666667 1.34,3.26666667 1.34,4 L1.33333333,12 C1.33333333,12.7333333 1.93333333,13.3333333 2.66666667,13.3333333 L13.3333333,13.3333333 C14.0666667,13.3333333 14.6666667,12.7333333 14.6666667,12 L14.6666667,4 C14.6666667,3.26666667 14.0666667,2.66666667 13.3333333,2.66666667 Z M13.3333333,5.33333333 L8,8.66666667 L2.66666667,5.33333333 L2.66666667,4 L8,7.33333333 L13.3333333,4 L13.3333333,5.33333333 Z" id="Shape" fill="#FDB414" fill-rule="nonzero"></path>
                </g>
            </g>
        </g>
    </g>
</svg>