<?xml version="1.0" encoding="UTF-8"?>
<svg width="48px" height="48px" viewBox="0 0 48 48" version="1.1" xmlns="http://www.w3.org/2000/svg" xmlns:xlink="http://www.w3.org/1999/xlink">
    <title>63D34F0E-6461-42E9-AE53-8B8CDED40559</title>
    <g id="homepage-options---v2" stroke="none" stroke-width="1" fill="none" fill-rule="evenodd">
        <g id="1-Homepage---Footer-Option-2" transform="translate(-70.000000, -2415.000000)" fill="#FDB414" fill-rule="nonzero">
            <g id="Group-8" transform="translate(61.000000, 2012.000000)">
                <g id="wrench" transform="translate(9.000000, 403.000000)">
                    <path d="M46.1250032,19.781216 C45.0893605,19.781216 44.2500064,20.62057 44.2500064,21.6562128 C44.2500064,31.5296089 36.2171833,39.562432 26.3437872,39.562432 C23.5228692,39.562432 20.7803202,38.9091129 18.2981468,37.6581384 L22.878339,33.0197187 C24.4812415,33.9008207 26.4437626,34.4039936 27.8203472,34.4061909 L27.8375591,34.4061909 C30.5683893,34.4058247 33.0758313,33.3419838 35.0892556,31.3289257 C37.6029231,28.8148919 39.0999908,24.9953184 39.0937653,21.1120242 C39.0919343,19.8742335 38.8736729,18.6298508 38.4268963,17.3074654 C38.2196213,16.6940631 37.7102228,16.2308071 37.0796086,16.0824919 C36.4493607,15.9345429 35.7868862,16.1220426 35.3276585,16.5790731 L29.5627759,22.3179549 L26.3522101,21.5902949 L25.5996479,18.4313648 L31.4081095,12.6763699 C31.8695345,12.2189732 32.0614287,11.5557663 31.9156771,10.9229549 C31.7695591,10.2901435 31.3063031,9.77781524 30.691436,9.56870913 C29.5939037,9.19590708 28.2777438,8.81468217 26.8392697,8.81211868 C26.8315793,8.81211868 26.8238889,8.81211868 26.8158323,8.81211868 C23.6825369,8.81211868 20.4921127,9.83933857 18.06011,11.6323042 C15.174739,13.7592537 13.5886821,16.7775591 13.5938091,20.1309469 C13.5960064,21.4899533 14.0845309,23.4422205 14.9392657,25.0418271 L10.3316077,29.6795144 C9.08795746,27.2024679 8.43756796,24.4639473 8.43756796,21.6562128 C8.43756796,11.7828167 16.4703911,3.74999356 26.3437872,3.74999356 C31.3136273,3.74999356 35.9234827,5.74254382 39.2893216,9.28123406 L37.1250187,9.28123406 C36.0893759,9.28123406 35.2500219,10.1205881 35.2500219,11.1562308 C35.2500219,12.1918736 36.0893759,13.0312276 37.1250187,13.0312276 L42.0468852,13.0312276 C44.2954165,13.0312276 46.1250032,11.2016409 46.1250032,8.95310962 L46.1250032,4.12499291 C46.1250032,3.08935016 45.2856492,2.24999614 44.2500064,2.24999614 C43.2143637,2.24999614 42.3750097,3.08935016 42.3750097,4.12499291 L42.3750097,7.10081793 C40.6234257,5.17601655 38.5265056,3.56176151 36.2179158,2.37743732 C33.1867931,0.822142119 29.7726143,2.66453068e-15 26.3437872,2.66453068e-15 C20.5591292,2.66453068e-15 15.120906,2.25255963 11.0303369,6.34276254 C6.94013403,10.4333316 4.6875744,15.8715548 4.6875744,21.6562128 C4.6875744,25.4713917 5.68110294,29.1818347 7.57038195,32.4590507 L1.6590151,38.4092358 C0.597371485,39.4705132 0.00813907532,40.8756622 -1.21287456e-15,42.365772 C-0.00797417826,43.866868 0.574666399,45.2804398 1.64033844,46.3457456 C2.70381318,47.4099527 4.11738497,47.9973541 5.62104445,47.9999176 L5.63056596,47.9999176 C7.14484561,47.9999176 8.55914978,47.419108 9.61346928,46.3644224 L10.0357097,45.9421818 C10.7681304,45.2101275 10.7681304,44.0228736 10.0360759,43.290453 C9.30402159,42.5583986 8.11676773,42.5580324 7.38434711,43.290453 L6.96174037,43.7130597 C6.61530546,44.0594946 6.14289421,44.249924 5.63056596,44.249924 C5.62946731,44.249924 5.62836866,44.249924 5.6272701,44.249924 C5.1237309,44.2491916 4.64948852,44.0518042 4.29206726,43.694383 C3.94013918,43.3420886 3.74751251,42.8777339 3.75007601,42.3859136 C3.75300569,41.8900648 3.95185791,41.4194845 4.31477235,41.0565701 L18.6757095,26.601883 C19.3685794,25.9046186 19.4048343,24.7906069 18.7595717,24.0493972 C17.9773464,23.1510832 17.3456337,21.1680545 17.3438027,20.1250875 C17.3405068,17.9955746 18.3849386,16.0517302 20.2852039,14.6509758 C21.9232625,13.4435805 24.0392258,12.7049342 26.1764291,12.5811552 L22.2118363,16.5087607 C21.7471154,16.9694532 21.5559537,17.6388858 21.7071985,18.2753592 L22.9746524,23.5952964 C23.1405456,24.2907297 23.6869314,24.8312562 24.3841958,24.9894591 L29.7400216,26.2034462 C30.3666074,26.3455358 31.0221239,26.1569374 31.4773233,25.7035691 L35.3203343,21.87777 C35.1533424,24.5126532 34.102685,27.0120385 32.4375267,28.6771968 C31.5340859,29.5806377 30.0033268,30.6561973 27.8371929,30.6561973 C27.8338969,30.6561973 27.8298686,30.6561973 27.8265727,30.6561973 C26.7744505,30.6543663 24.7914217,30.0047092 23.9062914,29.2001452 C23.1625182,28.5237547 22.0173786,28.5545164 21.3109589,29.2700913 L13.9420751,36.7323588 C13.2177111,37.4662442 13.2213732,38.6469063 13.950498,39.3756647 L13.9629491,39.3884821 C14.0479099,39.4730767 14.1405611,39.5492485 14.2398041,39.6166312 C17.8209747,42.0343517 22.0063923,43.3124256 26.3437872,43.3124256 C32.1284452,43.3124256 37.5666684,41.059866 41.6572375,36.9696631 C45.7474404,32.879094 48,27.4408708 48,21.6562128 C48,20.62057 47.160646,19.781216 46.1250032,19.781216 L46.1250032,19.781216 Z" id="Path"></path>
                </g>
            </g>
        </g>
    </g>
</svg>