<?xml version="1.0" encoding="UTF-8"?>
<svg width="60px" height="50px" viewBox="0 0 60 50" version="1.1" xmlns="http://www.w3.org/2000/svg" xmlns:xlink="http://www.w3.org/1999/xlink">
    <title>B1462CA3-EA68-4353-B122-509724F4C288</title>
    <g id="homepage-options---v2" stroke="none" stroke-width="1" fill="none" fill-rule="evenodd">
        <g id="1-Homepage---Footer-Option-2" transform="translate(-775.000000, -1420.000000)" fill="#FDB414" fill-rule="nonzero">
            <g id="Group-7" transform="translate(773.000000, 1414.000000)">
                <g id="spotlight" transform="translate(2.000000, 6.000000)">
                    <path d="M52.2058346,19.3672163 C52.5046632,19.5778047 52.8557576,19.6861854 53.210016,19.6861854 C53.422946,19.6861854 53.6371651,19.6470117 53.8415405,19.5672397 C54.3857601,19.3549893 54.7907608,18.883124 54.9223626,18.3076264 L55.9727159,13.7180092 L58.9451818,9.39026237 C60.8029583,6.6854948 60.1420197,2.95413824 57.4720153,1.07225629 C56.1786147,0.160576898 54.6121667,-0.186407329 53.0610704,0.0955247744 C51.5100912,0.377456878 50.1603234,1.25423604 49.260439,2.56441904 L46.2879731,6.89204716 L42.4049588,9.48522897 C41.9181611,9.81037088 41.6220278,10.3590404 41.614645,10.9497327 C41.6073794,11.540425 41.8896845,12.0963357 42.3683963,12.4337046 L42.765311,12.7133812 L30.0000553,24.0829017 L17.2347996,12.7136187 L17.6317143,12.433942 C18.110426,12.0965731 18.3927312,11.5405437 18.3854656,10.9499701 C18.3780827,10.3592778 18.0821838,9.8106083 17.5951517,9.48546639 L13.7121374,6.89228458 L10.7396715,2.56453775 C9.83967001,1.25423604 8.49001932,0.377575586 6.93904016,0.0956434827 C5.38782663,-0.186288621 3.82149589,0.160576898 2.52809529,1.07225629 C-0.142026363,2.95413824 -0.802964968,6.68561351 1.05481158,9.39038108 L4.02727748,13.7181279 L5.0776308,18.3077451 C5.20934977,18.8832427 5.61411607,19.3551081 6.15845292,19.5673584 C6.36294545,19.6471304 6.57693018,19.6863041 6.78997741,19.6863041 C7.14400144,19.6863041 7.49521297,19.5779235 7.79415878,19.367335 L8.19107351,19.0875397 L15.1045616,37.3496175 L4.40204373,46.8817716 C3.85266782,47.371087 3.65989406,48.1540866 3.91794136,48.8474616 C4.17610586,49.5408365 4.83118508,50 5.56278786,50 L54.4372055,50 C55.1688083,50 55.8240047,49.5410739 56.082052,48.8474616 C56.3402165,48.1540866 56.1474428,47.371087 55.5979496,46.8817716 L44.8954318,37.3496175 L51.8089199,19.0875397 L52.2058346,19.3672163 Z M48.5055159,9.67706151 C48.6918443,9.55265526 48.8532118,9.39323008 48.9808292,9.20745166 L52.1464204,4.59860369 C52.5099367,4.06940229 53.0553282,3.71505815 53.6819308,3.60109823 C54.3082991,3.48725701 54.941347,3.62733275 55.4638869,3.99568447 C56.5425997,4.75601083 56.8095532,6.26348695 56.0590832,7.35619643 L52.893492,11.9650444 C52.7659918,12.1507041 52.6744682,12.3593932 52.6240775,12.5798345 L52.0834906,14.9418913 L46.5068798,11.0115797 L48.5055159,9.67706151 Z M7.91661992,14.9421287 L7.37603308,12.5800719 C7.32564237,12.3596306 7.23411878,12.1509415 7.10661857,11.9652818 L3.94102734,7.35631514 C3.19032296,6.26348695 3.45751091,4.75601083 4.53610646,3.99580317 C4.94005245,3.71102207 5.4100923,3.56275546 5.89208529,3.56275546 C6.03341365,3.56275546 6.17591389,3.57545725 6.31794538,3.60133565 C6.94454799,3.71517686 7.48993952,4.06940229 7.85345576,4.59884111 L11.019047,9.20768907 C11.1466644,9.39334878 11.3079147,9.55277397 11.4944775,9.67741764 L13.4929964,11.0120545 L7.91661992,14.9421287 Z M10.2246316,46.4381588 L16.4472982,40.8959079 L18.5453096,46.4381588 L10.2246316,46.4381588 Z M49.775479,46.4381588 L37.6890916,46.4381588 L22.3109018,46.4381588 L11.5044384,17.8928598 L14.9770614,15.445333 L49.775479,46.4381588 Z M42.0792942,34.8413121 L32.6623254,26.4542178 L45.022932,15.445333 L48.495555,17.8928598 L42.0792942,34.8413121 Z" id="Shape"></path>
                </g>
            </g>
        </g>
    </g>
</svg>