<?xml version="1.0" encoding="UTF-8"?>
<svg width="49px" height="49px" viewBox="0 0 49 49" version="1.1" xmlns="http://www.w3.org/2000/svg" xmlns:xlink="http://www.w3.org/1999/xlink">
    <title>10197367-2700-4D45-8BF0-E835F2A44573</title>
    <g id="homepage-options---v2" stroke="none" stroke-width="1" fill="none" fill-rule="evenodd">
        <g id="1-Homepage---Footer-Option-2" transform="translate(-393.000000, -2236.000000)" fill="#FDB414" fill-rule="nonzero">
            <g id="Group-8" transform="translate(61.000000, 2012.000000)">
                <g id="marketing" transform="translate(332.000000, 224.000000)">
                    <path d="M42.9364548,21.56 C40.4782609,21.56 38.3478261,23.03 37.3645485,24.99 L31.1371237,23.8466667 C31.1371237,22.8666667 30.8093645,21.8866667 30.3177258,21.2333333 L38.5117057,13.0666667 C39.1672241,13.3933333 39.8227425,13.5566667 40.4782609,13.5566667 C43.1003344,13.5566667 45.2307692,11.4333333 45.2307692,8.82 C45.2307692,6.20666667 43.1003344,4.08333333 40.4782609,4.08333333 C37.8561873,4.08333333 35.7257525,6.20666667 35.7257525,8.82 C35.7257525,9.47333333 35.8896321,10.1266667 36.2173913,10.78 L28.187291,18.7833333 C27.2040134,18.2933333 26.2207358,17.9666667 25.0735786,17.9666667 C23.9264214,17.9666667 22.9431438,18.2933333 21.9598662,18.7833333 L12.4548495,9.47333333 C12.9464883,8.49333333 13.4381271,7.51333333 13.4381271,6.20666667 C13.4381271,2.77666667 10.4882943,0 7.04682274,0 C3.60535117,0 0.819397993,2.77666667 0.819397993,6.20666667 C0.819397993,9.63666667 3.60535117,12.4133333 7.04682274,12.4133333 C8.19397993,12.4133333 9.17725753,12.0866667 9.99665552,11.5966667 L19.3377926,20.9066667 C19.0100334,21.3966667 18.8461538,21.8866667 18.6822742,22.3766667 L13.7658863,22.3766667 C13.1103679,20.7433333 11.4715719,19.4366667 9.34113712,19.4366667 C6.71906355,19.4366667 4.58862876,21.56 4.58862876,24.1733333 C4.58862876,26.7866667 6.71906355,28.91 9.34113712,28.91 C11.3076923,28.91 13.1103679,27.6033333 13.7658863,25.8066667 L18.8461538,25.8066667 C19.0100334,26.2966667 19.173913,26.7866667 19.5016722,27.2766667 L9.50501672,37.24 C8.52173913,36.75 7.53846154,36.4233333 6.39130435,36.4233333 C2.78595318,36.4233333 0,39.2 0,42.7933333 C0,46.3866667 2.78595318,49 6.22742475,49 C9.66889632,49 12.4548495,46.2233333 12.4548495,42.7933333 C12.4548495,41.65 12.1270903,40.67 11.6354515,39.69 L21.632107,29.7266667 C22.6153846,30.2166667 23.5986622,30.5433333 24.7458194,30.5433333 L25.0735786,30.5433333 L27.8595318,39.2 C26.8762542,40.0166667 26.2207358,41.3233333 26.2207358,42.7933333 C26.2207358,45.4066667 28.3511706,47.53 30.9732441,47.53 C33.5953177,47.53 35.7257525,45.4066667 35.7257525,42.7933333 C35.7257525,40.18 33.5953177,38.0566667 30.9732441,38.0566667 L28.3511706,29.4 C29.3344482,28.7466667 29.9899666,27.93 30.4816054,26.95 L36.5451505,28.2566667 C36.7090301,31.5233333 39.4949833,34.1366667 42.7725753,34.1366667 C46.2140468,34.1366667 49,31.36 49,27.93 C49,24.5 46.3779264,21.56 42.9364548,21.56 L42.9364548,21.56 Z M32.6120401,42.7933333 C32.6120401,43.61 31.9565217,44.2633333 31.1371237,44.2633333 C30.3177258,44.2633333 29.6622074,43.61 29.6622074,42.7933333 C29.6622074,41.9766667 30.3177258,41.3233333 31.1371237,41.3233333 C31.9565217,41.3233333 32.6120401,41.9766667 32.6120401,42.7933333 Z M40.4782609,7.18666667 C41.2976589,7.18666667 41.9531773,7.84 41.9531773,8.65666667 C41.9531773,9.47333333 41.2976589,10.1266667 40.4782609,10.1266667 C39.6588629,10.1266667 39.0033445,9.47333333 39.0033445,8.65666667 C39.0033445,7.84 39.6588629,7.18666667 40.4782609,7.18666667 Z M27.8595318,24.1733333 C27.8595318,25.8066667 26.548495,27.1133333 24.909699,27.1133333 C23.270903,27.1133333 21.9598662,25.8066667 21.9598662,24.1733333 C21.9598662,22.54 23.270903,21.2333333 24.909699,21.2333333 C26.548495,21.2333333 27.8595318,22.54 27.8595318,24.1733333 L27.8595318,24.1733333 Z M4.09698997,6.20666667 C4.09698997,4.57333333 5.40802676,3.26666667 7.04682274,3.26666667 C8.68561873,3.26666667 9.99665552,4.57333333 9.99665552,6.20666667 C9.99665552,7.84 8.68561873,9.31 7.04682274,9.31 C5.40802676,9.31 4.09698997,8.00333333 4.09698997,6.20666667 Z M9.34113712,25.6433333 C8.52173913,25.6433333 7.86622074,24.99 7.86622074,24.1733333 C7.86622074,23.3566667 8.52173913,22.7033333 9.34113712,22.7033333 C10.1605351,22.7033333 10.8160535,23.3566667 10.8160535,24.1733333 C10.8160535,24.99 10.1605351,25.6433333 9.34113712,25.6433333 Z M6.22742475,45.7333333 C4.58862876,45.7333333 3.27759197,44.4266667 3.27759197,42.7933333 C3.27759197,41.16 4.58862876,39.8533333 6.22742475,39.8533333 C7.86622074,39.8533333 9.17725753,41.16 9.17725753,42.7933333 C9.17725753,44.4266667 8.03010033,45.7333333 6.22742475,45.7333333 Z M42.9364548,30.7066667 C41.2976589,30.7066667 39.9866221,29.4 39.9866221,27.7666667 C39.9866221,26.1333333 41.2976589,24.8266667 42.9364548,24.8266667 C44.5752508,24.8266667 45.8862876,26.1333333 45.8862876,27.7666667 C45.8862876,29.4 44.5752508,30.7066667 42.9364548,30.7066667 Z" id="Shape"></path>
                </g>
            </g>
        </g>
    </g>
</svg>