<?xml version="1.0" encoding="UTF-8"?>
<svg width="46px" height="50px" viewBox="0 0 46 50" version="1.1" xmlns="http://www.w3.org/2000/svg" xmlns:xlink="http://www.w3.org/1999/xlink">
    <title>AA893CFE-324D-405D-8EB9-B0F98916ADB6</title>
    <g id="homepage-options---v2" stroke="none" stroke-width="1" fill="none" fill-rule="evenodd">
        <g id="1-Homepage---Footer-Option-2" transform="translate(-70.000000, -2323.000000)" fill="#FDB414" fill-rule="nonzero">
            <g id="Group-8" transform="translate(61.000000, 2012.000000)">
                <g id="weighing-scale-(1)" transform="translate(9.000000, 311.000000)">
                    <path d="M23.4999525,7 C23.4998576,7 23.4998576,7 23.4999525,7 C17.386618,7 11.6510365,9.7312857 7.34958763,14.6907255 C6.88347079,15.2281291 6.88347079,16.0278084 7.34958763,16.5652119 L15.1070969,25.5092444 C15.3775035,25.8210242 15.7693036,26 16.1812252,26 L30.8187748,26 C31.2307913,26 31.6224965,25.8210242 31.8929031,25.5092444 L39.6504124,16.5652119 C40.1165292,16.0278084 40.1165292,15.2280339 39.6504124,14.6906303 C35.3488686,9.7312857 29.6130972,7 23.4999525,7 Z M22.663391,23.1440024 L23.4998576,21.3266359 L24.3363243,23.1440024 L22.663391,23.1440024 Z M30.1702355,23.1440024 L27.4726234,23.1440024 L24.7924753,17.3212897 C24.5597491,16.8156829 24.0551925,16.491908 23.4998576,16.491908 C22.9446177,16.491908 22.4399662,16.8156829 22.20724,17.3212897 L19.5271868,23.1440024 L16.8295747,23.1440024 L10.3334568,15.6543391 C11.1450563,14.8184838 12.0062003,14.0677372 12.9084415,13.404765 L14.1341456,14.879507 C14.4157519,15.2183235 14.8205551,15.3931105 15.2283955,15.3931105 C15.5498652,15.3931105 15.8731382,15.2844874 16.1392738,15.06191 C16.743204,14.5568744 16.8246392,13.6564736 16.3212216,13.0507165 L15.3480805,11.8798527 C17.4564738,10.7762 19.7268833,10.1074206 22.0761654,9.91483115 L22.0761654,11.6735545 C22.0761654,12.4621906 22.7135999,13.1015533 23.4998576,13.1015533 C24.2861154,13.1015533 24.9235499,12.4621906 24.9235499,11.6735545 L24.9235499,9.91483115 C27.2728319,10.1074206 29.5432414,10.7762 31.6516347,11.8798527 L30.6784936,13.0507165 C30.1749811,13.6564736 30.2565112,14.5569696 30.8603466,15.06191 C31.1266719,15.2844874 31.4498501,15.3931105 31.7713198,15.3931105 C32.1791602,15.3931105 32.5839633,15.2182283 32.8655697,14.879507 L34.0912738,13.404765 C34.9934201,14.0677372 35.854659,14.8184838 36.6661636,15.6543391 L30.1702355,23.1440024 Z" id="Shape"></path>
                    <path d="M43.2802064,3.5452349 C41.2784107,1.29214637 38.4158379,0 35.4263032,0 L10.5736692,0 C7.58423089,0 4.72165814,1.29214637 2.7199588,3.54513709 C0.718259447,5.79812781 -0.252512679,8.82073303 0.0563605971,11.8378606 L2.97947404,40.3800143 C3.5411144,45.8642513 8.06257957,50 13.4967826,50 L32.5032862,50 C37.9373929,50 42.458858,45.8643491 43.0205948,40.3800143 L45.9436118,11.8379584 C46.2525815,8.82083085 45.281713,5.79822562 43.2802064,3.5452349 Z M43.0669643,11.5345339 L40.1439473,40.0766876 C39.7359724,44.0609197 36.4510607,47.0655268 32.5032862,47.0655268 L24.4460704,47.0655268 L24.4460704,38.2651394 C24.4460704,37.4548336 23.7986319,36.7979028 23.0000344,36.7979028 C22.201437,36.7979028 21.5539985,37.4548336 21.5539985,38.2651394 L21.5539985,47.0655268 L13.4967826,47.0655268 C9.54891171,47.0655268 6.26409648,44.0610175 5.85602514,40.0766876 L2.93300809,11.5345339 C2.70848691,9.34258018 3.41376684,7.14681169 4.86799698,5.50996254 C6.32222712,3.87321119 8.40181961,2.93447321 10.5736692,2.93447321 L35.4263032,2.93447321 C37.5981528,2.93447321 39.6778417,3.87321119 41.1320718,5.51006035 C42.586302,7.14681169 43.2914855,9.342678 43.0669643,11.5345339 Z" id="Shape"></path>
                </g>
            </g>
        </g>
    </g>
</svg>