<?xml version="1.0" encoding="UTF-8"?>
<svg width="52px" height="41px" viewBox="0 0 52 41" version="1.1" xmlns="http://www.w3.org/2000/svg" xmlns:xlink="http://www.w3.org/1999/xlink">
    <title>6C9C01A9-FF4D-47DE-8B04-70807EFDB1BC</title>
    <g id="homepage-options---v2" stroke="none" stroke-width="1" fill="none" fill-rule="evenodd">
        <g id="1-Homepage---Footer-Option-2" transform="translate(-388.000000, -2158.000000)" fill="#FDB414" fill-rule="nonzero">
            <g id="Group-8" transform="translate(61.000000, 2012.000000)">
                <g id="Group-20" transform="translate(327.000000, 146.000000)">
                    <g id="empty-folder">
                        <path d="M46.4285714,1.86364552 L24.1428571,1.86364552 C23.0842154,0.675907085 21.5708205,-0.00207776905 19.9828571,4.78362199e-06 L5.57142857,4.78362199e-06 C2.49441354,4.78362199e-06 0,2.50314427 0,5.59091737 L0,35.4090922 C0,38.4968653 2.49441354,41.0000048 5.57142857,41.0000048 L46.4285714,41.0000048 C49.5055865,41.0000048 52,38.4968653 52,35.4090922 L52,7.4545533 C52,4.36678019 49.5055865,1.86364552 46.4285714,1.86364552 Z M48.2857143,7.4545533 L48.2857143,7.79000777 C47.6901768,7.57303853 47.0621232,7.45959361 46.4285714,7.4545533 L28.3028571,7.4545533 C27.5968515,7.45948386 26.9491217,7.06226501 26.6314286,6.42955354 L26.2228571,5.59091737 L46.4285714,5.59091737 C47.4542431,5.59091737 48.2857143,6.4252956 48.2857143,7.4545533 L48.2857143,7.4545533 Z M48.2857143,35.4090922 C48.2857143,36.4383499 47.4542431,37.2727281 46.4285714,37.2727281 L5.57142857,37.2727281 C4.54575689,37.2727281 3.71428571,36.4383499 3.71428571,35.4090922 L3.71428571,5.59091737 C3.71428571,4.56165967 4.54575689,3.72723607 5.57142857,3.72723607 L19.9828571,3.72723607 C20.6888628,3.72235088 21.3365926,4.11956973 21.6542857,4.75228121 L23.3071429,8.08818952 C24.2520523,9.98752824 26.1873831,11.1859971 28.3028571,11.1818252 L46.4285714,11.1818252 C47.4542431,11.1818252 48.2857143,12.0162034 48.2857143,13.0454611 L48.2857143,35.4090922 Z" id="Shape"></path>
                    </g>
                    <g id="prescription" transform="translate(18.000000, 12.000000)">
                        <path d="M15.8279026,19.9380609 L11.2446213,15.0932604 L15.8310879,10.1755021 C16.0718965,9.91710842 16.0529364,9.51781314 15.7887386,9.2817014 C15.5251778,9.04556 15.1150023,9.06288712 14.874224,9.32249729 L10.3623541,14.1598803 L4.52894917,7.99353059 L4.90942556,7.99353059 C7.16252408,7.99353059 8.99595187,6.2009743 8.99595187,3.99678013 C8.99595187,1.79380242 7.16249374,0 4.90942556,0 L0.647192091,0 C0.289467842,0 0,0.283108597 0,0.632974094 L0,14.0177326 C0,14.3675684 0.289467842,14.650677 0.647192091,14.650677 C1.004886,14.650677 1.29435385,14.3675684 1.29435385,14.0177326 L1.29435385,7.99353059 L2.79914978,7.99353059 C2.82126486,8.02815516 2.83452177,8.06645879 2.86425123,8.09862078 L9.48703397,15.0994318 L4.97134171,19.9405532 C4.7305331,20.1989172 4.74949321,20.5994586 5.01369101,20.8355703 C5.13755364,20.9456154 5.29366363,21 5.44977362,21 C5.62545045,21 5.80055088,20.9307805 5.92820553,20.793558 L10.3693011,16.0315658 L14.877379,20.7972667 C15.0050337,20.931997 15.17886,21 15.352656,21 C15.5100401,21 15.6673938,20.9443692 15.7918935,20.8318616 C16.0548172,20.5945038 16.070592,20.1939624 15.8279026,19.9380609 Z M1.29435385,6.72761207 L1.29435385,1.26591852 L4.90942556,1.26591852 C6.44898676,1.26591852 7.70159802,2.49104115 7.70159802,3.99678013 C7.70159802,5.5025191 6.44898676,6.72761207 4.90942556,6.72761207 L1.29435385,6.72761207 Z" id="Shape"></path>
                    </g>
                </g>
            </g>
        </g>
    </g>
</svg>