<?xml version="1.0" encoding="UTF-8"?>
<svg width="49px" height="46px" viewBox="0 0 49 46" version="1.1" xmlns="http://www.w3.org/2000/svg" xmlns:xlink="http://www.w3.org/1999/xlink">
    <title>D228F6CA-5C8F-446F-85CE-EFEE4A682FB8</title>
    <g id="homepage-options---v2" stroke="none" stroke-width="1" fill="none" fill-rule="evenodd">
        <g id="1-Homepage---Footer-Option-2" transform="translate(-389.000000, -2323.000000)" fill="#FDB414" fill-rule="nonzero">
            <g id="Group-8" transform="translate(61.000000, 2012.000000)">
                <g id="heartbeat" transform="translate(328.000000, 311.000000)">
                    <path d="M43.6145961,0 L5.23333287,0 C1.39381099,0 0,3.12953306 0,5.23333287 L0,33.1461859 C0,36.9857078 3.12953306,38.3795188 5.23333287,38.3795188 L22.6795202,38.3795188 L22.6795202,41.8684074 L15.7017431,41.8684074 C14.7388098,41.8684074 13.9572988,42.648174 13.9572988,43.6128517 C13.9572988,44.5775294 14.7388098,45.357296 15.7017431,45.357296 L33.1461859,45.357296 C34.1108636,45.357296 34.8906302,44.5775294 34.8906302,43.6128517 C34.8906302,42.648174 34.1108636,41.8684074 33.1461859,41.8684074 L26.1684088,41.8684074 L26.1684088,38.3795188 L43.6145961,38.3795188 C47.454118,38.3795188 48.847929,35.2499858 48.847929,33.1461859 L48.847929,5.23333287 C48.847929,1.39381099 45.7183959,0 43.6145961,0 Z M45.3590404,33.1252526 C45.3381071,33.9311859 45.0206182,34.8906302 43.6145961,34.8906302 L5.2542662,34.8906302 C4.45007738,34.8696969 3.48888858,34.552208 3.48888858,33.1461859 L3.48888858,20.9333315 L3.49063302,20.9333315 L8.72396589,20.9333315 C9.25427696,20.9333315 9.75493247,20.6925982 10.0863769,20.2791649 L15.3615764,13.6869099 L22.8644313,28.6943641 C23.1313313,29.2264196 23.6494312,29.5875196 24.2407978,29.6485751 C24.3018534,29.6555529 24.3646534,29.6590418 24.4239645,29.6590418 C24.9507867,29.6590418 25.4531866,29.4200529 25.7863755,29.0048752 L32.2390749,20.9333315 L40.1257076,20.9333315 C41.0903852,20.9333315 41.8701518,20.1518204 41.8701518,19.1888872 C41.8701518,18.2259539 41.0903852,17.4444429 40.1257076,17.4444429 L31.4017417,17.4444429 C30.8714306,17.4444429 30.3707751,17.6851762 30.0393307,18.0986095 L24.7658756,24.6926089 L17.2630207,9.6851547 C16.9961207,9.15309919 16.4780208,8.79374366 15.8866541,8.73094367 C15.2865653,8.67512145 14.7126431,8.91236588 14.3410765,9.37638806 L7.88488819,17.4444429 L3.49063302,17.4444429 L3.48888858,17.4444429 L3.48888858,5.2542662 C3.50982191,4.44833294 3.82905522,3.48888858 5.23333287,3.48888858 L43.5936628,3.48888858 C44.3995961,3.50982191 45.3590404,3.82905522 45.3590404,5.23333287 L45.3590404,33.1252526 Z" id="Shape"></path>
                </g>
            </g>
        </g>
    </g>
</svg>