<?xml version="1.0" encoding="UTF-8"?>
<svg width="44px" height="50px" viewBox="0 0 44 50" version="1.1" xmlns="http://www.w3.org/2000/svg" xmlns:xlink="http://www.w3.org/1999/xlink">
    <title>50EBC1CC-A927-4777-8971-8203C0119922</title>
    <g id="homepage-options---v2" stroke="none" stroke-width="1" fill="none" fill-rule="evenodd">
        <g id="1-Homepage---Footer-Option-2" transform="translate(-73.000000, -2156.000000)" fill="#FDB414" fill-rule="nonzero">
            <g id="Group-8" transform="translate(61.000000, 2012.000000)">
                <g id="tower" transform="translate(12.000000, 144.000000)">
                    <path d="M2.68883119,12.7945938 C2.68883119,8.79256477 3.8152722,4.95962731 5.94877013,1.70862703 L3.76149558,0 C1.30112541,3.75122944 0,8.17618302 0,12.7945938 C0,18.042303 1.72649851,23.1294339 4.86167568,27.1186441 L6.90196078,25.2064809 C4.18552426,21.7504767 2.68883119,17.3413755 2.68883119,12.7945938 Z" id="Path"></path>
                    <path d="M40.2385044,0 L38.0512299,1.70862703 C40.1847278,4.95962731 41.3111688,8.79256477 41.3111688,12.7945938 C41.3111688,17.3413755 39.8144757,21.7504767 37.0980392,25.2064809 L39.1383243,27.1186441 C42.2735015,23.1294339 44,18.042303 44,12.7945938 C44,8.17618302 42.6988746,3.75122944 40.2385044,0 Z" id="Path"></path>
                    <path d="M8.93576832,12.5862842 C8.93576832,9.87066944 9.77586513,7.27014339 11.3655898,5.06446763 L9.01214076,3.38983051 C7.06739532,6.08588022 6.03921569,9.26654945 6.03921569,12.5862842 C6.03921569,16.3584137 7.40407129,20.0139199 9.88052724,22.8813559 L12.0784314,21.0072317 C10.0517135,18.6623944 8.93576832,15.6714298 8.93576832,12.5862842 Z" id="Path"></path>
                    <path d="M35.8506043,3.38983051 L33.4971553,5.06446763 C35.08688,7.27014339 35.9269768,9.87066944 35.9269768,12.5862842 C35.9269768,15.6714298 34.8110316,18.6623944 32.7843137,21.0072317 L34.9822179,22.8813559 C37.4586738,20.0139199 38.8235294,16.3584137 38.8235294,12.5862842 C38.8235294,9.26654945 37.7953498,6.08588022 35.8506043,3.38983051 Z" id="Path"></path>
                    <path d="M15.3085439,11.9296639 C15.3085439,10.3849185 15.8290226,8.903563 16.8147453,7.64824857 L14.1871565,5.93220339 C12.8071447,7.69139294 12.0784314,9.76586072 12.0784314,11.9296639 C12.0784314,14.3914482 13.0468191,16.775494 14.8038926,18.6440678 L17.254902,16.7236028 C15.9993572,15.3890757 15.3085439,13.6874775 15.3085439,11.9296639 Z" id="Path"></path>
                    <path d="M30.6755448,5.93220339 L28.0479013,7.64824857 C29.0336444,8.903563 29.5541341,10.3849185 29.5541341,11.9296639 C29.5541341,13.6874775 28.8633063,15.3890757 27.6078431,16.7236028 L30.0589035,18.6440678 C31.8159059,16.775494 32.7843137,14.3914482 32.7843137,11.9296639 C32.7843137,9.76586072 32.0555852,7.69139294 30.6755448,5.93220339 Z" id="Path"></path>
                    <path d="M37.9275023,47.0773758 L24.9955837,16.0949291 C25.900371,15.2923765 26.479638,14.1450517 26.479638,12.8585125 C26.479638,10.4411127 24.4701719,8.47457627 22,8.47457627 C19.5298281,8.47457627 17.520362,10.4411127 17.520362,12.8585125 C17.520362,14.1450517 18.099629,15.2923765 19.0044163,16.0949291 L6.07249774,47.0773758 L2.58823529,47.0773758 L2.58823529,50 C16.8001357,50 27.1832398,50 41.4117647,50 L41.4117647,47.0773758 L37.9275023,47.0773758 Z M30.8217014,37.7910297 L24.3915294,32.756907 L27.6067149,30.2397482 L30.8217014,37.7910297 Z M30.1849955,41.0372858 L13.8150045,41.0372858 L22,34.6292375 L30.1849955,41.0372858 Z M21.7609864,17.2186781 C21.8417195,17.2229647 21.9180724,17.2424488 22,17.2424488 C22.0819276,17.2424488 22.158181,17.2229647 22.2390136,17.2186781 L24.7377557,23.5015408 L19.2621448,23.5015408 L21.7609864,17.2186781 Z M18.018,26.4241649 L25.982,26.4241649 L26.4108507,27.4313012 L22,30.884674 L17.5890498,27.4313987 L18.018,26.4241649 Z M16.3933846,30.2397482 L19.6085701,32.756907 L13.1783982,37.7910297 L16.3933846,30.2397482 Z M9.30779186,47.0773758 L10.5521357,44.0573308 L33.4479638,44.0573308 L34.6924072,47.0773758 L9.30779186,47.0773758 Z" id="Shape"></path>
                </g>
            </g>
        </g>
    </g>
</svg>