<?xml version="1.0" encoding="UTF-8"?>
<svg width="18px" height="18px" viewBox="0 0 18 18" version="1.1" xmlns="http://www.w3.org/2000/svg" xmlns:xlink="http://www.w3.org/1999/xlink">
    <title>C7079222-4C05-48FF-B14A-298F4D45B9A9</title>
    <g id="homepage-options---v2" stroke="none" stroke-width="1" fill="none" fill-rule="evenodd">
        <g id="1-Homepage---Footer-Option-2" transform="translate(-1111.000000, -11.000000)">
            <g id="Group-6" transform="translate(880.000000, 11.000000)">
                <g id="location_on_black_24dp-(1)" transform="translate(231.000000, 0.000000)">
                    <polygon id="Path" points="0 0 18 0 18 18 0 18"></polygon>
                    <path d="M9,1.5 C6.0975,1.5 3.75,3.8475 3.75,6.75 C3.75,10.6875 9,16.5 9,16.5 C9,16.5 14.25,10.6875 14.25,6.75 C14.25,3.8475 11.9025,1.5 9,1.5 Z M9,8.625 C7.965,8.625 7.125,7.785 7.125,6.75 C7.125,5.715 7.965,4.875 9,4.875 C10.035,4.875 10.875,5.715 10.875,6.75 C10.875,7.785 10.035,8.625 9,8.625 Z" id="Shape" fill="#FDB414" fill-rule="nonzero"></path>
                </g>
            </g>
        </g>
    </g>
</svg>