<?xml version="1.0" encoding="UTF-8"?>
<svg width="64px" height="82px" viewBox="0 0 64 82" version="1.1" xmlns="http://www.w3.org/2000/svg" xmlns:xlink="http://www.w3.org/1999/xlink">
    <title>3AA6286B-E155-452F-A924-70F80B0970AD</title>
    <g id="homepage-options---v2" stroke="none" stroke-width="1" fill="none" fill-rule="evenodd">
        <g id="my-meade-promo---smaller-subpage-images" transform="translate(-1033.000000, -1330.000000)" fill="#FDB414" fill-rule="nonzero">
            <g id="Group" transform="translate(1033.000000, 1330.000000)">
                <g id="next-(2)">
                    <path d="M43.0716802,38.7498044 L5.38896049,0.927283964 C4.15433014,-0.311199741 2.15543511,-0.309117717 0.922873345,0.93369019 C-0.308733685,2.17633794 -0.305551238,4.18933441 0.929238239,5.42877905 L36.3689692,41.0001515 L0.927965261,76.5713638 C-0.306665094,77.8109686 -0.309847541,79.8226838 0.921600366,81.0654917 C1.53947247,81.6884972 2.34892789,82 3.15838331,82 C3.96577015,82 4.77204312,81.6905793 5.38880137,81.071898 L43.0716802,43.2503385 C43.6663204,42.6548798 44,41.8444921 44,41.0001515 C44,40.1558109 43.6653657,39.3463842 43.0716802,38.7498044 Z" id="Path"></path>
                </g>
                <g id="next-(2)" transform="translate(20.000000, 0.000000)">
                    <path d="M43.0716802,38.7498044 L5.38896049,0.927283964 C4.15433014,-0.311199741 2.15543511,-0.309117717 0.922873345,0.93369019 C-0.308733685,2.17633794 -0.305551238,4.18933441 0.929238239,5.42877905 L36.3689692,41.0001515 L0.927965261,76.5713638 C-0.306665094,77.8109686 -0.309847541,79.8226838 0.921600366,81.0654917 C1.53947247,81.6884972 2.34892789,82 3.15838331,82 C3.96577015,82 4.77204312,81.6905793 5.38880137,81.071898 L43.0716802,43.2503385 C43.6663204,42.6548798 44,41.8444921 44,41.0001515 C44,40.1558109 43.6653657,39.3463842 43.0716802,38.7498044 Z" id="Path"></path>
                </g>
            </g>
        </g>
    </g>
</svg>