<?xml version="1.0" encoding="UTF-8"?>
<svg width="26px" height="26px" viewBox="0 0 26 26" version="1.1" xmlns="http://www.w3.org/2000/svg" xmlns:xlink="http://www.w3.org/1999/xlink">
    <title>E9896C31-2C45-4CE2-8CF1-AE3C854D2059</title>
    <g id="homepage-options---v2" stroke="none" stroke-width="1" fill="none" fill-rule="evenodd">
        <g id="6-Meade---Parts-Listing" transform="translate(-301.000000, -823.000000)">
            <g id="Group-10" transform="translate(41.000000, 808.000000)">
                <g id="search_black_24dp-(7)" transform="translate(260.000000, 15.000000)">
                    <polygon id="Path" points="0 0 26 0 26 26 0 26"></polygon>
                    <path d="M16.7916667,15.1666667 L15.9358333,15.1666667 L15.6325,14.8741667 C16.6941667,13.6391667 17.3333333,12.0358333 17.3333333,10.2916667 C17.3333333,6.4025 14.1808333,3.25 10.2916667,3.25 C6.4025,3.25 3.25,6.4025 3.25,10.2916667 C3.25,14.1808333 6.4025,17.3333333 10.2916667,17.3333333 C12.0358333,17.3333333 13.6391667,16.6941667 14.8741667,15.6325 L15.1666667,15.9358333 L15.1666667,16.7916667 L20.5833333,22.1975 L22.1975,20.5833333 L16.7916667,15.1666667 Z M10.2916667,15.1666667 C7.59416667,15.1666667 5.41666667,12.9891667 5.41666667,10.2916667 C5.41666667,7.59416667 7.59416667,5.41666667 10.2916667,5.41666667 C12.9891667,5.41666667 15.1666667,7.59416667 15.1666667,10.2916667 C15.1666667,12.9891667 12.9891667,15.1666667 10.2916667,15.1666667 Z" id="Shape" fill="#303B42" fill-rule="nonzero"></path>
                </g>
            </g>
        </g>
    </g>
</svg>