<?xml version="1.0" encoding="UTF-8"?>
<svg width="57px" height="57px" viewBox="0 0 57 57" version="1.1" xmlns="http://www.w3.org/2000/svg" xmlns:xlink="http://www.w3.org/1999/xlink">
    <title>BB60399E-9081-4B2A-9305-87455BF03350</title>
    <g id="homepage-options---v2" stroke="none" stroke-width="1" fill="none" fill-rule="evenodd">
        <g id="1-Homepage---Footer-Option-2" transform="translate(-285.000000, -2712.000000)" fill="#FFFFFF" fill-rule="nonzero">
            <g id="Group-15" transform="translate(187.000000, 2644.000000)">
                <g id="repairing-service" transform="translate(98.000000, 68.000000)">
                    <path d="M56.8209614,25.3359661 C56.7309859,24.5348255 55.7964737,23.9321213 54.9884201,23.9321213 C52.3769132,23.9321213 50.059244,22.3993545 49.0872626,20.0269923 C48.0950674,17.5976876 48.735249,14.765101 50.6809375,12.9801598 C51.2937566,12.4198544 51.3684486,11.4816571 50.8547257,10.8303915 C49.5176657,9.13295945 47.9986828,7.59945312 46.3396832,6.27054578 C45.6906274,5.74992765 44.7368875,5.82240006 44.1736165,6.44581068 C42.4749291,8.32713528 39.4234053,9.02622288 37.0653087,8.04242224 C34.6123066,7.01030666 33.0639891,4.5238128 33.2160846,1.85490539 C33.2661258,1.01604957 32.6528136,0.287134894 31.8169046,0.1897655 C29.6878141,-0.0567392948 27.539989,-0.0638879338 25.4047358,0.173003174 C24.5794266,0.264209948 23.9666075,0.97586929 23.9939699,1.8041254 C24.0864104,4.4469033 22.5205909,6.88951931 20.0912535,7.88465917 C17.7615054,8.83641418 14.7311813,8.14250319 13.035945,6.27769441 C12.4756321,5.66340447 11.5386548,5.587974 10.8851618,6.09749941 C9.17735364,7.43774598 7.62410606,8.97223833 6.27472069,10.6558661 C5.7489189,11.3103363 5.82656895,12.2588868 6.44456477,12.8211642 C8.42870852,14.6179376 9.06839706,17.4749282 8.03823968,19.932581 C7.05467234,22.2756091 4.62188384,23.7849579 1.83708176,23.7849579 C0.933383042,23.7558704 0.290243393,24.3630117 0.19040761,25.1848587 C-0.0600446258,27.3252598 -0.062756215,29.5073202 0.178328713,31.6652232 C0.268304172,32.4698149 1.23042531,33.0673425 2.04735317,33.0673425 C4.5296898,33.0042373 6.91145113,34.5399621 7.91202753,36.9722249 C8.90767377,39.4015297 8.2667527,42.2328838 6.31785961,44.02029 C5.70824506,44.5805954 5.6303485,45.5165741 6.14505742,46.1671003 C7.46855945,47.8539326 8.98902145,49.3884249 10.6529512,50.7286715 C11.3061976,51.2547128 12.2562399,51.1810078 12.822469,50.5568577 C14.5278121,48.671096 17.5788429,47.9732409 19.9273256,48.9590136 C22.3874765,49.9884176 23.9350544,52.474665 23.783945,55.1443119 C23.7343968,55.9831677 24.3491881,56.7143009 25.1821389,56.8094518 C26.2717048,56.9368948 27.3669403,57 28.4656269,57 C29.5083562,57 30.551332,56.9430574 31.5943078,56.8269536 C32.420603,56.7357469 33.0324361,56.023348 33.0045807,55.1948454 C32.909182,52.5533 34.4784526,50.1104375 36.9048319,49.1172697 C39.2501101,48.159352 42.2668763,48.8604117 43.9630985,50.7225089 C44.5263696,51.3355663 45.4576772,51.4100108 46.1138818,50.9024574 C47.8187318,49.5656619 49.3690213,48.0319091 50.7243229,46.3438442 C51.2506177,45.6906065 51.1759257,44.7408236 50.5544788,44.1775601 C48.5708281,42.3820192 47.9276884,39.5237961 48.9578458,37.0686083 C49.9261296,34.7571329 52.2684497,33.2051387 54.7877625,33.2051387 L55.1402691,33.2145059 C55.958183,33.2808156 56.7097862,32.6509959 56.808636,31.8165772 C57.0603207,29.674204 57.0630323,27.4946086 56.8209614,25.3359661 Z M28.4998915,44.9306322 C19.4251886,44.9306322 12.0691402,37.5746827 12.0691402,28.5003482 C12.0691402,19.4260137 19.4254351,12.0700641 28.4998915,12.0700641 C37.574348,12.0700641 44.9306429,19.4260137 44.9306429,28.5003482 C44.9306429,31.5804256 44.0814224,34.4613271 42.6065644,36.924896 L35.4119788,29.7301606 C35.9328505,28.5020737 36.2079535,27.1707013 36.207707,25.7966836 C36.207707,23.1060837 35.1598011,20.576698 33.257005,18.6744205 C31.3547019,16.772143 28.8252822,15.7244977 26.1351393,15.7244977 C25.2373568,15.7244977 24.3437649,15.843806 23.4792609,16.0792181 C23.1006245,16.1825036 22.7910103,16.4945786 22.6901885,16.8739495 C22.5871481,17.2619481 22.7032534,17.6595603 23.0064584,17.9630077 C23.0064584,17.9630077 26.5583937,21.5422573 27.7468093,22.7304104 C27.8712959,22.8548954 27.8710494,23.1519336 27.8535473,23.2589167 L27.8424544,23.3370587 C27.7226515,24.6435341 27.4916734,26.2117976 27.3011226,26.8145019 C27.2754858,26.8398919 27.251328,26.8613378 27.2251981,26.8874673 C27.1978357,26.9148293 27.1726919,26.9412053 27.1463155,26.9683209 C26.535715,27.1642922 24.9432726,27.3979787 23.6160729,27.516794 L23.6163195,27.5096454 L23.5566645,27.5246822 C23.5460646,27.5259147 23.526344,27.5273937 23.5002141,27.5273937 C23.3567464,27.5273937 23.1457355,27.4872135 22.9539522,27.2956792 C21.7169745,26.0587182 18.3043163,22.6705098 18.3043163,22.6705098 C17.9981532,22.3653368 17.6841019,22.3012456 17.4748165,22.3012456 C16.986977,22.3012456 16.5501646,22.6537474 16.4126131,23.1593288 C15.4731707,26.6357859 16.4690634,30.3752636 19.0122876,32.9187001 C20.9150836,34.8212241 23.4447498,35.8688695 26.1353858,35.8688695 C27.509422,35.8688695 28.8408123,35.5940166 30.0686691,35.073152 L37.3413978,42.345783 C34.7880668,43.9796167 31.7560171,44.9306322 28.4998915,44.9306322 Z" id="Shape"></path>
                </g>
            </g>
        </g>
    </g>
</svg>