<?xml version="1.0" encoding="UTF-8"?>
<svg width="58px" height="58px" viewBox="0 0 58 58" version="1.1" xmlns="http://www.w3.org/2000/svg" xmlns:xlink="http://www.w3.org/1999/xlink">
    <title>91471EE8-0927-4839-8211-8E31AE803522</title>
    <g id="homepage-options---v2" stroke="none" stroke-width="1" fill="none" fill-rule="evenodd">
        <g id="1-Homepage---Footer-Option-2" transform="translate(-557.000000, -2712.000000)" fill="#FFFFFF" fill-rule="nonzero">
            <g id="Group-16" transform="translate(459.000000, 2644.000000)">
                <g id="excavator" transform="translate(98.000000, 68.000000)">
                    <path d="M48.0217967,0.152259337 C45.7078985,0.772233355 44.1233205,3.21563243 44.9707598,5.55739522 L52.2981588,25.8015745 C52.8123219,25.3778951 53.4616295,25.1351664 54.1408596,25.1351298 C55.2408317,25.1132097 56.4238123,25.1168631 57.4845453,25.1822581 L53.3705466,3.29746754 C52.9695703,1.16500534 50.9473345,-0.118746394 48.8978432,0.00868256134 C48.6051944,0.0269493267 48.3109746,0.0748082521 48.0217967,0.152259337 L48.0217967,0.152259337 Z M49.3037518,3.87327252 C49.837644,3.87327252 50.2704426,4.30601219 50.2704426,4.83987667 C50.2704426,5.37374116 49.837644,5.80648083 49.3037518,5.80648083 C48.7698961,5.80648083 48.3370974,5.37370463 48.3370974,4.83987667 C48.3370974,4.30604872 48.7698961,3.87327252 49.3037518,3.87327252 Z M26.6928191,10.718889 C24.2876185,11.7663053 22.8235712,14.025137 22.0785043,16.1164624 L21.2761129,18.3706543 L32.9365046,18.3706543 C33.262766,17.4865064 33.7147823,16.7224076 35.0661919,15.9371193 L44.5138477,9.97502976 L43.1525743,6.21430464 C42.898653,5.51238591 42.7952578,4.80736183 42.810895,4.12060452 L26.6928191,10.718889 Z M20.3094224,20.30368 C18.7151264,20.30368 17.5883373,21.6538497 17.4188856,23.0942207 L17.4408068,22.9732947 L15.6849511,29.971804 L2.90493159,29.971804 C1.31505622,29.971804 0.00116917019,31.2799966 0.00116917019,32.8697898 L0.00116917019,39.6417546 C0.00116917019,41.2315478 1.31505622,42.5378407 2.90493159,42.5378407 L35.7734813,42.5378407 C37.363503,42.5378407 38.7129755,41.2341416 38.6772439,39.6191039 L38.6772439,32.8697898 C38.676294,32.7474024 38.6516691,32.6264765 38.6056345,32.5128572 L34.7389807,22.8448063 C34.5307287,22.3245322 34.2938319,21.7573492 33.8666959,21.2457336 C33.4395606,20.734118 32.7305902,20.30368 31.9125989,20.30368 L20.3094224,20.30368 Z M22.2314416,24.1722156 L22.2424022,24.1722156 L25.1405377,24.1722156 L25.1405377,31.9070228 L20.6942515,31.9070228 C20.0557942,31.908008 19.5913931,31.3014053 19.7596753,30.6855596 L21.3078633,24.8915243 C21.418931,24.4715713 21.7966707,24.1773303 22.231077,24.1722156 L22.2314416,24.1722156 Z M27.0742128,24.1722155 L30.1781157,24.1722155 C30.5669992,24.1720329 30.918105,24.4049342 31.0692521,24.7631454 L34.7301391,33.4626924 C34.781654,33.5817918 34.8086902,33.7103898 34.809421,33.8402665 L34.809421,37.7086194 C34.8074882,38.2394881 34.3774257,38.6693417 33.8465287,38.6714651 L28.0446262,38.6714651 C27.7212877,38.672447 27.4185182,38.5118091 27.2384358,38.2429223 L27.0740264,37.9955903 L27.0742128,24.1722155 Z M54.1408596,27.0682651 C53.833962,27.0682651 53.5452591,27.2140704 53.3630203,27.460964 L44.6648852,39.0565971 C44.1859057,39.6929016 44.6393104,40.6029884 45.4351981,40.6047054 L51.2370969,40.6047054 C54.9690812,40.6047054 57.9999936,37.5720936 57.9999936,33.8402665 L57.9999936,28.0386687 C58.0019198,27.5048408 57.5709516,27.0704206 57.0370959,27.0682651 L54.1408596,27.0682651 Z M4.82388181,33.8251781 C5.36661557,33.8178714 5.80821927,34.2604021 5.80189864,34.8031077 L5.80189864,37.7086194 C5.83112698,39.0267127 3.83895977,39.0267127 3.86855347,37.7086194 L3.86855347,34.8031077 C3.86124638,34.2692797 4.29002615,33.8314619 4.82388181,33.8251781 L4.82388181,33.8251781 Z M8.69243509,33.8251781 C9.23516922,33.8178714 9.67677329,34.2604021 9.6704523,34.8031077 L9.6704523,37.7086194 C9.69968064,39.0255801 7.70868256,39.0255801 7.73710712,37.7086194 L7.73710712,34.8031077 C7.72980004,34.2692797 8.15858017,33.8314619 8.69243509,33.8251781 Z M12.5534266,33.8251781 C13.0983891,33.8142181 13.543536,34.258137 13.5371068,34.8031077 L13.5371068,37.7086194 C13.5078785,38.9688435 11.6320759,38.9688435 11.6037609,37.7086194 L11.6037609,34.8031077 C11.5964173,34.2714717 12.0217989,33.8345307 12.5534266,33.8251781 L12.5534266,33.8251781 Z M6.77231611,44.4711586 C3.04033188,44.4711586 0,47.5056702 0,51.2374608 C0,54.9692514 3.04033188,58 6.77231611,58 L36.7371031,58 C40.4691202,58 43.4999896,54.9692514 43.4999896,51.2374608 C43.4999896,47.5056702 40.4691202,44.4711586 36.7371031,44.4711586 L6.77231611,44.4711586 Z M8.70756149,48.3395115 C10.297729,48.3395115 11.6037609,49.6474119 11.6037609,51.2374608 C11.6037609,52.8275462 10.2977656,54.1411093 8.70756149,54.1411093 C7.11735668,54.1411093 5.80189864,52.8275462 5.80189864,51.2374608 C5.80189864,49.6474119 7.11742975,48.3395115 8.70756149,48.3395115 Z M17.4056598,48.3395115 C18.995828,48.3395115 20.3018957,49.6474119 20.3018957,51.2374608 C20.3018957,52.8275462 18.995828,54.1411093 17.4056598,54.1411093 C15.8154557,54.1411093 14.4999973,52.8275462 14.4999973,51.2374608 C14.4999973,49.6474119 15.8154922,48.3395115 17.4056598,48.3395115 Z M26.1037588,48.3395115 C27.6939259,48.3395115 28.9999951,49.6474119 28.9999951,51.2374608 C28.9999951,52.8275462 27.6939628,54.1411093 26.1037588,54.1411093 C24.5135536,54.1411093 23.2075582,52.8275462 23.2075582,51.2374608 C23.2075582,49.6474119 24.5135905,48.3395115 26.1037588,48.3395115 Z M34.8018947,48.3395115 C36.3920626,48.3395115 37.7075571,49.6474119 37.7075571,51.2374608 C37.7075571,52.8275462 36.3920991,54.1411093 34.8018947,54.1411093 C33.2116895,54.1411093 31.9056572,52.8275462 31.9056572,51.2374608 C31.9056572,49.6474119 33.2117253,48.3395115 34.8018947,48.3395115 Z" id="path6139"></path>
                </g>
            </g>
        </g>
    </g>
</svg>