<?xml version="1.0" encoding="UTF-8"?>
<svg width="55px" height="49px" viewBox="0 0 55 49" version="1.1" xmlns="http://www.w3.org/2000/svg" xmlns:xlink="http://www.w3.org/1999/xlink">
    <title>8C90B2E9-5103-46FC-9720-A8E6AF06C3F1</title>
    <g id="homepage-options---v2" stroke="none" stroke-width="1" fill="none" fill-rule="evenodd">
        <g id="1-Homepage---Footer-Option-2" transform="translate(-1103.000000, -2716.000000)" fill="#FFFFFF" fill-rule="nonzero">
            <g id="Group-19" transform="translate(1003.000000, 2644.000000)">
                <g id="stacked-files" transform="translate(100.000000, 72.000000)">
                    <path d="M53.6016198,11.2895323 L28.4557257,0.202869198 C27.8469525,-0.0676230658 27.1511354,-0.0676230658 26.5391581,0.202869198 L1.39451006,11.2895323 C0.573734238,11.6508339 0.0317124678,12.4461199 0.00127380677,13.335031 C-0.0280968311,14.2221823 0.452335602,15.0510818 1.24605484,15.4685233 L26.3903469,28.726164 C26.7370984,28.9100706 27.1171367,29 27.4982429,29 C27.8813073,29 28.2608115,28.9100706 28.608097,28.726164 L53.7536351,15.4685233 C54.5466423,15.0510818 55.0276088,14.2221823 54.9987721,13.335031 C54.9644174,12.4461199 54.4236417,11.6508339 53.6016198,11.2895323 Z" id="Path"></path>
                    <path d="M51.536305,21.2920151 L27.4980637,34.7356384 L3.4637385,21.2920151 C2.31313543,20.6483858 0.888409721,21.1050286 0.278575855,22.3090577 C-0.335530053,23.5125269 0.100040137,25.0058067 1.24743918,25.6477565 L26.3914271,39.7098163 C26.7381744,39.9035209 27.1182081,40 27.4993097,40 C27.8823694,40 28.2618691,39.9048272 28.6091504,39.7098163 L53.7543843,25.6477565 C54.8991133,25.0058067 55.3341495,23.5125269 54.7236036,22.3090577 C54.1091417,21.1048419 52.683348,20.6481992 51.536305,21.2920151 Z" id="Path"></path>
                    <path d="M51.536305,30.2923371 L27.4980637,43.7343343 L3.4637385,30.2923371 C2.31313543,29.6480112 0.888409721,30.1053108 0.278575855,31.3079156 C-0.335530053,32.5116404 0.100040137,34.0067303 1.24743918,34.6478831 L26.3914271,48.7084481 C26.7381744,48.9035004 27.1182081,49 27.4993097,49 C27.8823694,49 28.2618691,48.904807 28.6091504,48.7084481 L53.7543843,34.6478831 C54.8991133,34.0067303 55.3341495,32.511827 54.7236036,31.3079156 C54.1091417,30.1053108 52.685306,29.6478245 51.536305,30.2923371 Z" id="Path"></path>
                </g>
            </g>
        </g>
    </g>
</svg>