<?xml version="1.0" encoding="UTF-8"?>
<svg width="47px" height="62px" viewBox="0 0 47 62" version="1.1" xmlns="http://www.w3.org/2000/svg" xmlns:xlink="http://www.w3.org/1999/xlink">
    <title>4DF44594-C1B5-4451-87AD-4E651DE40BEB</title>
    <g id="homepage-options---v2" stroke="none" stroke-width="1" fill="none" fill-rule="evenodd">
        <g id="1-Homepage---Footer-Option-2" transform="translate(-833.000000, -2710.000000)" fill="#FFFFFF" fill-rule="nonzero">
            <g id="Group-17" transform="translate(731.000000, 2644.000000)">
                <g id="customer-support-(1)" transform="translate(102.000000, 66.000000)">
                    <path d="M46.6303981,50.6419912 C45.2696414,46.4955813 39.8462086,43.9000974 35.9794705,42.1603208 C34.4646659,41.4810124 30.2709139,40.3285401 29.7668799,38.3757014 C29.5864816,37.6721814 29.610805,37.0087835 29.7587721,36.373056 C29.5256732,36.4187122 29.2891962,36.4456908 29.0446113,36.4456908 L26.5251169,36.4456908 C24.5137105,36.4456908 22.8793161,34.7702479 22.8793161,32.7122616 C22.8793161,30.6556589 24.5143861,28.9836748 26.5251169,28.9836748 L29.0446113,28.9836748 C29.8770106,28.9836748 30.6661684,29.2721387 31.3026296,29.7868082 C32.2357005,29.6595244 33.1356647,29.4554552 33.9748205,29.187744 C35.0768037,26.8239998 35.936229,23.9974681 36.1287889,21.5645479 C36.9510535,11.1549422 30.7181934,5.06468641 21.7813868,6.11754526 C15.2836723,6.88332367 11.40207,11.8439352 10.9824921,18.2302643 C10.5581847,24.7397267 12.9155233,29.5474593 15.4194777,33.0740522 C16.5160557,34.6159854 17.6680369,35.6072776 17.4910169,37.4653452 C17.2856197,39.6623752 14.9911164,40.2745829 13.3499655,40.9497407 C11.4054482,41.7494153 9.31093699,42.9627625 8.32178716,43.52378 C4.91449029,45.4503318 1.17477422,47.7704951 0.334267123,50.9442904 C-1.5271453,57.9781069 4.75909107,60.1087279 9.94874945,61.0924108 C14.4026263,61.933591 19.4247238,62 23.5556405,62 C31.0276405,62 44.4635924,61.6935503 46.6303981,55.9429487 C47.2465898,54.3110867 46.9824111,51.7107605 46.6303981,50.6419912 L46.6303981,50.6419912 Z" id="Path"></path>
                    <path d="M30.8223558,31.9942351 C30.4717088,31.4596458 29.8722825,31.1046396 29.1883128,31.1046396 L26.6041965,31.1046396 C25.5259222,31.1046396 24.6562344,31.9762075 24.6562344,33.0495463 C24.6562344,34.1270454 25.5259222,35 26.6041965,35 L29.1883128,35 C29.9429663,35 30.5832783,34.5694164 30.9062062,33.9467689 C34.5090007,33.66318 37.6426488,32.5621063 39.8421621,30.9361504 C40.3473433,31.2620349 40.9446907,31.4527121 41.5891605,31.4527121 L41.7513175,31.4527121 C43.5475174,31.4527121 45,29.9980189 45,28.1987202 L45,21.7032172 C45,20.4093863 44.2418817,19.2930584 43.1483618,18.7744166 C42.6715927,8.34403106 34.0419332,0 23.5003465,0 C12.9587597,0 4.3277143,8.34403106 3.85302413,18.7744166 C2.75742534,19.2937517 2,20.4093863 2,21.7032172 L2,28.1987202 C2,29.9980189 3.45386859,31.4527121 5.24591062,31.4527121 L5.41014649,31.4527121 C7.20357448,31.4527121 8.65813605,29.9980189 8.65813605,28.1987202 L8.65813605,21.7032172 C8.65813605,20.4281073 7.92150006,19.3284203 6.8508485,18.7966045 C7.31445102,10.0081224 14.6031974,3.0029914 23.5003465,3.0029914 C32.3940307,3.0029914 39.686242,10.0081224 40.1477655,18.7966045 C39.0784999,19.3291137 38.3425569,20.4281073 38.3425569,21.7032172 L38.3425569,28.1987202 C38.3425569,28.6299972 38.4264073,29.0314592 38.5740117,29.4065732 C36.6807948,30.7621142 33.9248199,31.7279805 30.8223558,31.9942351 Z" id="Path"></path>
                </g>
            </g>
        </g>
    </g>
</svg>